<?xml version="1.0" encoding="UTF-8" standalone="no"?>
<!-- Created with Inkscape (http://www.inkscape.org/) -->
<svg id="svg4147" xmlns:rdf="http://www.w3.org/1999/02/22-rdf-syntax-ns#" xmlns="http://www.w3.org/2000/svg" height="480" viewBox="0 0 480 480" width="480" version="1.1" xmlns:cc="http://creativecommons.org/ns#" xmlns:dc="http://purl.org/dc/elements/1.1/">
 <metadata id="metadata4153">
  <rdf:RDF>
   <cc:Work rdf:about="">
    <dc:format>image/svg+xml</dc:format>
    <dc:type rdf:resource="http://purl.org/dc/dcmitype/StillImage"/>
    <dc:title/>
   </cc:Work>
  </rdf:RDF>
 </metadata>
 <path id="path4697" d="m330.93 382.75c-21.64-37.538-44.677-77.47-51.193-88.738-6.5165-11.268-11.665-21.19-11.441-22.047 0.43679-1.6703 47.335-82.908 48.66-84.29 0.43515-0.4538 3.4658 3.8212 6.7347 9.5s36.485 63.2 73.813 127.83c37.328 64.625 68.949 119.41 70.267 121.75l2.397 4.25h-49.947-49.947l-39.345-68.25zm-320.93 22.81c0-0.58234 48.056-83.815 49.006-84.877 0.63957-0.71549 210.94-1.168 211.49-0.45502 0.11685 0.15072 10.696 18.499 23.509 40.774s23.955 41.512 24.76 42.75l1.4637 2.25h-155.12c-85.308 0-155.11-0.2-155.11-0.44zm116.37-110.08c0.52228-1.361 28.216-49.428 118.67-205.98 15.572-26.95 29.636-51.399 31.254-54.331 1.6173-2.9321 3.2932-4.9571 3.724-4.5 1.53 1.61 48.99 84.35 48.99 85.39 0 0.57779-7.5888 14.188-16.864 30.244-9.28 16.06-32.06 55.52-50.63 87.7-18.568 32.175-34.389 59.512-35.159 60.75l-1.3994 2.25h-49.584c-43.975 0-49.518-0.17211-49-1.5215z"/>
</svg>
