<?xml version="1.0" encoding="UTF-8" standalone="no"?>
<!-- Created with Inkscape (http://www.inkscape.org/) -->
<svg id="svg3336" xmlns:rdf="http://www.w3.org/1999/02/22-rdf-syntax-ns#" xmlns="http://www.w3.org/2000/svg" height="80" viewBox="0 0 59.312351 80.000038" width="59.312" version="1.1" xmlns:cc="http://creativecommons.org/ns#" xmlns:dc="http://purl.org/dc/elements/1.1/">
 <metadata id="metadata3342">
  <rdf:RDF>
   <cc:Work rdf:about="">
    <dc:format>image/svg+xml</dc:format>
    <dc:type rdf:resource="http://purl.org/dc/dcmitype/StillImage"/>
    <dc:title/>
   </cc:Work>
  </rdf:RDF>
 </metadata>
 <path id="path3346" fill="#db0000" d="m26.109 76.44c-1.9002-1.9586-5.6235-5.8112-8.2738-8.5615-2.6502-2.7503-5.4864-5.6888-6.3031-6.5302-0.81672-0.84143-3.0398-3.1445-4.9404-5.1192s-4.1613-4.3084-5.0227-5.1875l-1.569-1.598v-45.08l0.559-0.0704c0.30744-0.0387 2.4125-0.34163 4.6779-0.67312s4.6485-0.67672 5.2958-0.76717c0.64726-0.0904 3.0039-0.43081 5.2369-0.75637s5.9136-0.86097 8.179-1.1898c4.2939-0.62327 5.0727-0.74509 5.6318-0.88082 0.18488-0.0449 0.37023-0.0322 0.41189 0.0283 0.0417 0.0604 0.55236 0.17184 1.1349 0.24759 0.58253 0.0757 3.2569 0.4578 5.943 0.84899 2.6861 0.39121 6.7109 0.97577 8.9439 1.2991 2.233 0.32327 5.8871 0.85445 8.1202 1.1804 2.233 0.32593 4.3117 0.62428 4.6191 0.66301l0.559 0.0704v45.08l-1.5679 1.5977c-0.86262 0.87792-3.1492 3.2386-5.0827 5.2451-1.9327 2.0065-4.1558 4.3102-4.9401 5.1192-0.78434 0.80907-3.6211 3.748-6.3039 6.5311-8.3849 8.698-11.665 12.063-11.761 12.063-0.0509 0-1.6473-1.6025-3.5477-3.5611z"/>
 <g id="layer4" transform="matrix(.11768 0 0 .11768 -14.476 -4.0251)">
  <path id="path7531" fill="#fff" d="m355.91 571.77c-24.993-2.4863-43.792-6.6911-62.278-13.93-22.614-8.8551-46.082-22.555-66.851-39.027-11.291-8.9548-32.512-29.189-39.389-37.557-2.9156-3.548-0.9735-2.0426 6.0954 4.7247 36.231 34.685 77.49 57.83 116.08 65.117 14.603 2.7574 33.793 2.612 43.275-0.32781 9.0434-2.804 15.462-7.0012 19.186-12.547l2.8354-4.2218 1.6881 3.54c5.3408 11.2 27.009 17.653 51.016 15.193 42.44-4.3484 87.32-27.881 129.31-67.801 8.5613-8.1397 8.8978-8.3604 4.0183-2.6351-2.929 3.4367-10.18 10.96-16.113 16.719-39.704 38.538-86.99 63.576-133.68 70.78-9.9616 1.5371-46.462 2.842-55.195 1.9733zm-6.7692-50.131c-9.1527-1.6502-35.961-9.1765-47.385-13.303-32.794-11.846-59.286-27.575-83.12-49.351-11.406-10.421-19.731-14.774-29.604-15.48-3.8714-0.27688-8.8871 0.007-11.146 0.63086-2.2589 0.62385-4.2636 0.97785-4.4547 0.78667-0.19118-0.19117 1.0378-4.5134 2.7312-9.6049 4.3554-13.096 5.7005-24.099 5.0003-40.902-0.62926-15.1-2.8686-26.41-7.473-37.741-1.4454-3.5572-2.4627-6.6331-2.2605-6.8352 0.20214-0.20215 3.2867 1.0808 6.8545 2.851 10.452 5.1859 21.646 7.5636 32.778 6.9626 11.358-0.61321 17.706-2.4885 26.572-7.8492 12.634-7.639 24.163-21.293 33.149-39.258 2.292-4.5822 18.708-45.354 36.48-90.604 45.34-115.44 65.878-167.42 66.814-169.09 0.5214-0.9317 3.021 4.2025 7.0938 14.571 3.4588 8.8052 19.878 50.689 36.486 93.075 62.335 159.08 61.159 156.32 73.348 172.49 16.522 21.926 38.876 30.803 63.612 25.259 5.9721-1.3384 15.072-4.9745 23.877-9.5412 0.41798-0.21678-0.41998 2.1832-1.8621 5.3333-5.2205 11.403-7.9659 24.885-8.5157 41.817-0.56063 17.267 0.78287 27.408 5.4486 41.126 1.4314 4.2086 2.3933 7.8615 2.1373 8.1174-0.25592 0.25592-1.9651-0.0575-3.7981-0.69652-1.8331-0.63901-5.7554-1.1618-8.7162-1.1618-11.845 0-20.899 4.8552-38.045 20.4-25.9 23.481-64.487 42.835-106.75 53.539-15.538 3.9357-29.557 6.5579-21.349 3.993 37.334-11.666 58.332-22.98 73.227-39.455 7.8307-8.661 14.627-22.103 16.355-32.348 1.573-9.3258 0.77164-21.626-2.0617-31.645-1.9163-6.7759-9.5704-27.06-10.599-28.089-0.82313-0.82314-15.115 3.2879-20.12 5.7876-9.6502 4.8196-16.123 14.819-16.163 24.97-0.0197 4.9918 0.37337 6.164 2.841 8.4728 1.5752 1.4737 4.5041 3.5115 6.5089 4.5284l3.645 1.8489-4.4437 1.4869c-6.1146 2.046-9.0605 6.3457-14.315 20.893-5.5195 15.282-9.79 23.781-13.917 27.698-2.84 2.6953-3.2693 2.8275-3.8944 1.1986-1.6851-4.3914 0.65184-22.282 5.2751-40.385 5.6045-21.944 6.5611-28.642 4.4847-31.403-2.2851-3.0378-5.1936-1.3882-13.01 7.3785-10.092 11.319-31.146 29.461-44.546 38.385-31.806 21.181-64.325 28.975-86.427 20.713-3.583-1.3393 7.8959 9.7251 15.621 15.057 10.843 7.484 27.455 15.431 42.698 20.426 7.4462 2.4402 14.476 4.6651 15.621 4.9442 2.0828 0.50761 2.0828 0.50761 0 0.4866-1.1456-0.0116-3.2544-0.23226-4.6864-0.49045zm-28.425-51.416c9.8823-2.5601 28.571-11.367 40.165-18.926 15.381-10.029 35.217-28.05 36.362-33.033 0.26473-1.1526-3.7044-1.4313-21.545-1.5131-26.121-0.11966-32.629-1.2928-63.926-11.522-21.708-7.0956-37.728-11.264-38.76-10.084-3.0362 3.468-11.35 30.648-11.35 37.107 0 2.5024 0.28406 2.362 4.9468-2.4448 9.4334-9.725 25.005-9.9697 32.446-0.50986 5.9745 7.5954-1.617 20.988-9.7869 17.265-3.2998-1.5035-6.115-5.9211-5.4337-8.5264 0.66578-2.5459-1.2538-2.7195-5.5434-0.50124-6.8355 3.5348-8.6196 14.441-3.7278 22.788 7.1901 12.269 23.503 15.768 46.153 9.9005zm87.786-69.494c13.583-3.1822 33.325-11.333 33.325-13.759 0-1.8844-23.703-10.389-37.74-13.54-12.255-2.7518-12.563-2.7258-11.746 0.99352 2.501 11.387-9.8293 22.971-21.194 19.911-8.2267-2.2152-12.633-8.3671-12.633-17.638 0-3.4987-0.43558-5.3101-1.2769-5.3101-2.3096 0-62.193 14.984-61.73 15.446 2.0263 2.0263 41.564 13.477 53.114 15.382 12.693 2.0941 48.38 1.2084 59.882-1.4862zm-97.38-31.98c14.892-3.8119 31.529-8.1329 36.97-9.6021 8.5186-2.3001 12.137-2.6826 26.036-2.7524 18.549-0.0932 22.748 0.79468 57.149 12.084 15.506 5.0885 21.118 6.4617 27.987 6.8483 9.8662 0.55537 9.8973 0.5175 6.4255-7.8365-2.1323-5.1308-2.2504-5.2224-7.5503-5.8557-2.9613-0.35383-11.476-2.524-18.923-4.8226-49.418-15.255-73.286-16.247-110.39-4.5857-8.0189 2.5201-21.316 6.5521-29.549 8.9599l-14.969 4.378-1.9538 4.5581c-2.4232 5.6531-2.4469 6.7508-0.13136 6.0831 1.0024-0.28904 14.007-3.6444 28.899-7.4563zm2.0063-26.551c27.844-9.0618 38.78-11.414 56.313-12.113 13.019-0.51908 15.995-0.29133 27.793 2.1268 7.2673 1.4895 21.092 5.1143 30.722 8.0551 19.377 5.9176 28.651 8.3458 29.319 7.6771 0.24288-0.24289-1.4477-5.4955-3.7568-11.672-5.1318-13.728-78.474-202.75-78.814-203.12-0.13347-0.14676-1.4692 2.8994-2.9683 6.7692s-17.559 45.23-35.69 91.912c-36.735 94.586-45.232 116.6-45.232 117.2 0 0.22566 0.5858 0.22224 1.3018-0.007 0.71597-0.22987 10.171-3.3045 21.012-6.8326z"/>
 </g>
</svg>
