<?xml version="1.0" encoding="UTF-8" standalone="no"?>
<!-- Created with Inkscape (http://www.inkscape.org/) -->
<svg id="svg3336" xmlns:rdf="http://www.w3.org/1999/02/22-rdf-syntax-ns#" xmlns="http://www.w3.org/2000/svg" height="80" viewBox="0 0 59.312351 80.000038" width="59.312" version="1.1" xmlns:cc="http://creativecommons.org/ns#" xmlns:dc="http://purl.org/dc/elements/1.1/">
 <metadata id="metadata3342">
  <rdf:RDF>
   <cc:Work rdf:about="">
    <dc:format>image/svg+xml</dc:format>
    <dc:type rdf:resource="http://purl.org/dc/dcmitype/StillImage"/>
    <dc:title/>
   </cc:Work>
  </rdf:RDF>
 </metadata>
 <path id="path3346" fill="#db0000" d="m26.109 76.44c-1.9002-1.9586-5.6235-5.8112-8.2738-8.5615-2.6502-2.7503-5.4864-5.6888-6.3031-6.5302-0.81672-0.84143-3.0398-3.1445-4.9404-5.1192s-4.1613-4.3084-5.0227-5.1875l-1.569-1.598v-45.08l0.559-0.0704c0.30744-0.0387 2.4125-0.34163 4.6779-0.67312s4.6485-0.67672 5.2958-0.76717c0.64726-0.0904 3.0039-0.43081 5.2369-0.75637s5.9136-0.86097 8.179-1.1898c4.2939-0.62327 5.0727-0.74509 5.6318-0.88082 0.18488-0.0449 0.37023-0.0322 0.41189 0.0283 0.0417 0.0604 0.55236 0.17184 1.1349 0.24759 0.58253 0.0757 3.2569 0.4578 5.943 0.84899 2.6861 0.39121 6.7109 0.97577 8.9439 1.2991 2.233 0.32327 5.8871 0.85445 8.1202 1.1804 2.233 0.32593 4.3117 0.62428 4.6191 0.66301l0.559 0.0704v45.08l-1.5679 1.5977c-0.86262 0.87792-3.1492 3.2386-5.0827 5.2451-1.9327 2.0065-4.1558 4.3102-4.9401 5.1192-0.78434 0.80907-3.6211 3.748-6.3039 6.5311-8.3849 8.698-11.665 12.063-11.761 12.063-0.0509 0-1.6473-1.6025-3.5477-3.5611z"/>
 <g id="layer4" transform="matrix(.11768 0 0 .11768 -14.476 -4.0251)">
  <path id="path6964" fill="#fff" d="m309.11 549.09c-36.237-20.359-65.77-37.142-65.628-37.296 0.1419-0.15406 12.798 4.5694 28.125 10.497 56.078 21.687 102.49 39.321 103.5 39.325 0.56984 0.002 27.845-10.287 60.61-22.866 73.396-28.176 70.803-27.194 71.057-26.91 0.17975 0.20153-101.14 57.386-123.83 69.887l-7.9487 4.38-65.886-37.016zm69.031 27.146c1.53-1.53 2.3019-5.6244 1.0604-5.6244-0.78712 0-5.5758 5.5215-5.616 6.4755-0.058 1.3758 2.877 0.82747 4.5556-0.85106zm-3.0342-4.5883 2.9779-3.1082h-2.5768c-3.0345 0-5.0634 1.7436-5.0634 4.3515 0 2.6532 1.2482 2.3203 4.6623-1.2433zm-102.58-72.82c-20.516-10.378-45.46-22.586-55.43-27.128l-18.128-8.2595-10.361-0.0291c-5.6984-0.016-12.113 0.34254-14.255 0.79672l-3.8947 0.82577 2.5296-6.7206c4.048-10.755 6.9145-26.015 7.5622-40.259 0.33038-7.2655 0.76852-13.21 0.97367-13.21 0.20513 0 20.036 9.5307 44.068 21.179l43.695 21.179 1.341 5.2399c3.3919 13.254 14.699 26.414 33.243 38.692l6.4755 4.2874v11.177c0 6.1474-0.11656 11.159-0.25902 11.138-0.14246-0.0218-17.045-8.5305-37.561-18.908zm-41.981-47.337c1.1781-1.1781 1.781-2.7463 1.4187-3.6903-0.52645-1.3719-1.1185-1.1736-3.6028 1.2064-1.635 1.5665-2.9728 3.2271-2.9728 3.6903 0 1.5751 3.1007 0.84975 5.1569-1.2064zm-3.6028-4.1678 2.9779-3.1082h-2.7476c-2.8247 0-5.56 3.2624-4.3614 5.2018 0.85043 1.376 0.76603 1.4188 4.1311-2.0936zm212.91 59.282v-11.334l6.9935-4.5147c9.1013-5.8754 23.712-20.01 27.935-27.025 1.8307-3.041 3.9582-8.0008 4.7278-11.022l1.3993-5.4926 43.659-21.186c24.013-11.652 43.848-21.186 44.078-21.186 0.23012 0 0.67461 5.9445 0.98778 13.21 0.63837 14.81 2.6062 25.678 6.959 38.432 2.9168 8.5466 2.9248 8.6373 0.70906 7.9763-4.689-1.3989-19.088-1.8232-24.256-0.71477-6.9617 1.493-39.076 16.471-80.297 37.45l-32.895 16.742v-11.334zm84.958-53.908c0-0.46323-1.3476-2.1333-2.9946-3.7112-3.4981-3.3514-5.3847-1.9829-2.7692 2.0088 1.5476 2.3619 5.7638 3.6072 5.7638 1.7024zm2.1317-6.2991c-0.7374-1.3778-2.1822-2.1834-3.9161-2.1834h-2.7476l2.9844 3.115c3.2496 3.3918 5.6657 2.78 3.6792-0.93167zm-306.8-27.291-44.098-20.757-1.8283-7.0973c-1.0056-3.9035-2.9558-9.3195-4.3338-12.036-1.378-2.716-2.5074-5.0376-2.5098-5.159-0.002-0.12143 16.274-0.35455 36.171-0.51804l36.175-0.29727 4.4778-3.1484c9.8447-6.9218 19.349-22.319 29.713-48.137 2.8593-7.123 26.486-67.027 52.503-133.12s47.657-120.8 48.089-121.57c0.51153-0.91405 1.9017 1.4216 3.999 6.7188 3.8061 9.6132 35.161 89.234 61.544 156.28 36.028 91.556 40.488 102.64 44.979 111.73 7.8314 15.868 16.998 27.028 24.919 30.337 2.6632 1.1128 11.031 1.4245 38.237 1.4245 19.155 0 34.649 0.34967 34.43 0.77705-3.3153 6.4783-5.979 13.283-7.015 17.92l-1.2837 5.7458-44.064 20.674c-24.235 11.371-44.347 20.783-44.693 20.915-0.3459 0.13268-1.8487-4.7628-3.3396-10.879-1.8596-7.6286-18.867-52.888-54.169-144.15-28.302-73.166-51.878-133.78-52.391-134.69-0.81932-1.459-1.0249-1.409-1.6912 0.41126-1.0748 2.9362-26.521 68.9-32.574 84.44-28.973 74.387-69.738 180.67-71.783 187.14-1.416 4.4857-2.9059 10.37-3.3108 13.077-0.40494 2.7068-1.033 4.8749-1.3957 4.8181-0.36267-0.0568-20.504-9.4437-44.758-20.86zm9.3898-14.069c0-1.2524-5.8804-5.3658-6.6174-4.6289-1.0235 1.0235-0.74399 2.1051 0.99297 3.842 1.6979 1.6979 5.6244 2.2472 5.6244 0.78689zm295.87 0.0483c1.6829-1.1524 2.5574-4.2387 1.4032-4.9521-1.0164-0.62813-6.0891 3.4875-6.1232 4.9679-0.0229 0.99344 3.2621 0.98239 4.72-0.0159zm-294.22-5.93c-1.3387-2.0274-5.7971-3.5256-5.7971-1.948 0 0.43584 1.2539 2.1012 2.7865 3.7009 2.0243 2.113 3.0048 2.5552 3.5847 1.6169 0.43902-0.71035 0.18071-2.2268-0.57404-3.3698zm293.63-1.754c0-1.9048-4.2163-0.6595-5.7638 1.7024-2.6155 3.9917-0.72889 5.3603 2.7692 2.0088 1.647-1.5779 2.9946-3.248 2.9946-3.7112zm-146.68-276c1.6985-1.6985 2.247-5.6244 0.78588-5.6244-1.4133 0-6.4875 5.7939-5.7341 6.5473 1.1777 1.1777 3.2304 0.79488 4.9482-0.9229zm-3.0342-4.5883 2.9779-3.1082h-2.5768c-3.0345 0-5.0634 1.7436-5.0634 4.3515 0 2.6532 1.2482 2.3203 4.6623-1.2433z"/>
 </g>
</svg>
