<?xml version="1.0" encoding="UTF-8" standalone="no"?>
<!-- Created with Inkscape (http://www.inkscape.org/) -->
<svg id="svg3336" xmlns:rdf="http://www.w3.org/1999/02/22-rdf-syntax-ns#" xmlns="http://www.w3.org/2000/svg" height="60" viewBox="0 0 44.484138 60.000032" width="44.484" version="1.1" xmlns:cc="http://creativecommons.org/ns#" xmlns:dc="http://purl.org/dc/elements/1.1/">
 <metadata id="metadata3342">
  <rdf:RDF>
   <cc:Work rdf:about="">
    <dc:format>image/svg+xml</dc:format>
    <dc:type rdf:resource="http://purl.org/dc/dcmitype/StillImage"/>
    <dc:title/>
   </cc:Work>
  </rdf:RDF>
 </metadata>
 <path id="path3346" fill="#db0000" d="m19.582 57.33c-1.425-1.469-4.218-4.358-6.206-6.421-1.987-2.063-4.1144-4.266-4.727-4.897-0.6125-0.632-2.2798-2.359-3.7052-3.84-1.4255-1.481-3.121-3.231-3.7671-3.89l-1.1767-1.199v-16.905-16.905l0.41925-0.0528c0.23058-0.02903 1.8094-0.25622 3.5084-0.50484s3.4864-0.50754 3.9718-0.57538c0.48544-0.0678 2.2529-0.32311 3.9277-0.56728 1.6747-0.24417 4.4352-0.64573 6.1342-0.89235 3.2204-0.46745 3.8045-0.55882 4.2238-0.66061 0.13866-0.03367 0.27767-0.02415 0.30892 0.02123 0.03128 0.0453 0.41427 0.12888 0.85117 0.18569 0.4369 0.05677 2.4427 0.34335 4.4572 0.63674 2.0146 0.29341 5.0332 0.73183 6.7079 0.97432 1.6747 0.24245 4.4153 0.64084 6.0901 0.8853 1.6747 0.24445 3.2338 0.46821 3.4643 0.49726l0.41925 0.0528v16.905 16.905l-1.1759 1.1983c-0.64696 0.65844-2.3619 2.4289-3.812 3.9338-1.4495 1.5049-3.1168 3.2326-3.7051 3.8394-0.58825 0.6068-2.7158 2.811-4.7279 4.8983-6.2887 6.5235-8.7487 9.0472-8.8207 9.0472-0.03818 0-1.2355-1.2019-2.6608-2.6708z"/>
 <path id="path4158" fill="#fff" d="m20.095 47.639c-2.861-0.328-4.985-0.947-7.37-2.146-3.0731-1.545-5.9533-3.831-8.3506-6.628-0.42982-0.50151-0.38005-0.46382 0.4495 0.34043 2.2975 2.2275 4.26 3.6599 6.6654 4.8653 1.444 0.72357 3.0132 1.2966 4.3589 1.5916 0.66759 0.14635 1.0009 0.17151 2.2726 0.17149 1.4393-0.000015 1.5106-0.0075 2.0863-0.21049 1.0357-0.36571 1.7331-0.94545 1.9142-1.5911 0.1039-0.37053 0.20939-0.51146 0.20939-0.27974 0 0.09256 0.0807 0.32827 0.17933 0.52378 0.30768 0.6099 0.84555 1.0138 1.7953 1.3478 0.57498 0.20229 0.64888 0.20972 2.0863 0.20973 1.7443 0.000015 2.3404-0.10268 4.1727-0.71886 3.1067-1.0447 6.163-3.0193 9.0885-5.8716 0.75457-0.73577 0.87765-0.83497 0.56137-0.45245-0.61267 0.74095-2.4787 2.6075-3.2939 3.2948-3.0183 2.5447-6.3278 4.2877-9.6817 5.0991-1.4931 0.36123-2.2731 0.43939-4.6096 0.46198-1.2499 0.01207-2.3899 0.0085-2.5334-0.0079zm-0.67-3.759c-4.289-0.953-8.15-2.886-10.767-5.389-0.9621-0.921-1.7086-1.325-2.604-1.409-0.40974-0.0387-0.9783 0.0321-1.3185 0.16409-0.099157 0.03847-0.0756-0.09052 0.12644-0.69232 0.41719-1.2427 0.51625-1.8707 0.51483-3.2643-0.0015-1.6291-0.24489-2.9043-0.7881-4.1317-0.11601-0.26212-0.18675-0.46532-0.15721-0.45157 0.02955 0.01373 0.2955 0.15166 0.59104 0.30649 0.88402 0.46309 1.7084 0.67303 2.6667 0.67912 0.9828 0.006 1.5321-0.12511 2.3844-0.57018 0.72382-0.37799 1.8303-1.4493 2.3765-2.3009 0.74257-1.1577 0.43022-0.40056 8.376-20.303 1.4232-3.5652 1.7285-4.2682 1.7285-3.9817 0 0.1359 8.5747 21.801 8.8402 22.336 1.285 2.5893 3.1197 4.0055 5.5514 4.2852 0.60337 0.06937 0.87315 0.06255 1.5769-0.03983 0.46698-0.06795 1.044-0.19134 1.2822-0.27424 0.23821-0.0829 0.44836-0.13531 0.46698-0.11647 0.0186 0.01882-0.08508 0.33262-0.23044 0.69732-0.92482 2.3201-0.96225 5.1833-0.09652 7.3931l0.18599 0.47479-0.16357-0.0531c-0.70887-0.23005-1.3423-0.23265-1.9934-0.0082-0.69788 0.24064-1.2343 0.59361-2.0638 1.3582-1.801 1.66-3.8389 2.929-6.3518 3.955-1.5757 0.64344-4.0345 1.3517-5.1414 1.4811l-0.3353 0.03923 0.37255-0.11497c0.20491-0.06323 0.65758-0.20004 1.0059-0.30401 2.2741-0.67872 4.1071-1.6771 5.2969-2.885 1.0637-1.08 1.5493-2.1203 1.6147-3.4591 0.06038-1.2382-0.11157-2.0332-0.78607-3.6341-0.16593-0.39379-2.454-5.9557-5.0846-12.359-2.6305-6.4041-4.7909-11.653-4.8007-11.664-0.0098-0.01103-0.94867 2.5665-2.0863 5.7277-1.1377 3.1612-3.1576 8.766-4.4887 12.454-1.3311 3.6891-2.4875 6.9618-2.5699 7.2726-0.10747 0.40585-0.15163 0.82027-0.15662 1.4695-0.0084 1.0894 0.10735 1.6026 0.57788 2.5624 1.0286 2.0983 3.464 3.7051 7.3421 4.8444 0.50464 0.14824-0.07855 0.08643-0.89415-0.09478z"/>
</svg>
