<?xml version="1.0" encoding="UTF-8" standalone="no"?>
<!-- Created with Inkscape (http://www.inkscape.org/) -->
<svg id="svg3336" xmlns:rdf="http://www.w3.org/1999/02/22-rdf-syntax-ns#" xmlns="http://www.w3.org/2000/svg" height="80" viewBox="0 0 59.312351 80.000038" width="59.312" version="1.1" xmlns:cc="http://creativecommons.org/ns#" xmlns:dc="http://purl.org/dc/elements/1.1/">
 <metadata id="metadata3342">
  <rdf:RDF>
   <cc:Work rdf:about="">
    <dc:format>image/svg+xml</dc:format>
    <dc:type rdf:resource="http://purl.org/dc/dcmitype/StillImage"/>
    <dc:title/>
   </cc:Work>
  </rdf:RDF>
 </metadata>
 <path id="path3346" fill="#db0000" d="m26.109 76.44c-1.9002-1.9586-5.6235-5.8112-8.2738-8.5615-2.6502-2.7503-5.4864-5.6888-6.3031-6.5302-0.81672-0.84143-3.0398-3.1445-4.9404-5.1192s-4.1613-4.3084-5.0227-5.1875l-1.569-1.598v-45.08l0.559-0.0704c0.30744-0.0387 2.4125-0.34163 4.6779-0.67312s4.6485-0.67672 5.2958-0.76717c0.64726-0.0904 3.0039-0.43081 5.2369-0.75637s5.9136-0.86097 8.179-1.1898c4.2939-0.62327 5.0727-0.74509 5.6318-0.88082 0.18488-0.0449 0.37023-0.0322 0.41189 0.0283 0.0417 0.0604 0.55236 0.17184 1.1349 0.24759 0.58253 0.0757 3.2569 0.4578 5.943 0.84899 2.6861 0.39121 6.7109 0.97577 8.9439 1.2991 2.233 0.32327 5.8871 0.85445 8.1202 1.1804 2.233 0.32593 4.3117 0.62428 4.6191 0.66301l0.559 0.0704v45.08l-1.5679 1.5977c-0.86262 0.87792-3.1492 3.2386-5.0827 5.2451-1.9327 2.0065-4.1558 4.3102-4.9401 5.1192-0.78434 0.80907-3.6211 3.748-6.3039 6.5311-8.3849 8.698-11.665 12.063-11.761 12.063-0.0509 0-1.6473-1.6025-3.5477-3.5611z"/>
 <g id="layer1" transform="matrix(.11768 0 0 .11768 -14.476 -4.0251)">
  <path id="path4686" fill="#fff" d="m343.83 573.03c-11.21-1.3267-32.808-6.2017-44.372-10.016-40.957-13.508-77.402-36.641-111.87-71.012-20.443-20.383-27.346-29.335-9.0535-11.741 44.202 42.515 93.725 68.359 139.83 72.968 22.477 2.2472 40.925-2.0611 50.742-11.85 2.9479-2.9394 5.3598-6.0635 5.3598-6.9424 0-0.87888 0.45942-1.598 1.0209-1.598 0.5615 0 1.0209 0.62444 1.0209 1.3876 0 2.6876 8.0253 10.463 13.634 13.209 9.766 4.7819 17.117 6.1705 32.307 6.1028 40.754-0.18152 89.751-21.46 133.23-57.859 3.369-2.8204 11.607-10.43 18.306-16.909 7.6184-7.369 10.888-10.061 8.7293-7.187-6.2152 8.2749-34.977 36.046-46.957 45.34-36.337 28.189-71.479 45.025-111.27 53.305-11.933 2.4836-14.85 2.6745-44.921 2.9399-17.687 0.15615-33.767 0.0936-35.732-0.13898zm-0.31837-43.839c-49.163-10.931-90.685-31.475-120.85-59.794-5.6832-5.3355-10.858-9.0811-16.179-11.711-7.1327-3.5252-8.557-3.865-16.146-3.8524-4.5941 0.007-9.3528 0.57266-10.621 1.261-2.8533 1.5492-2.8497 1.4066 0.18381-7.4258 4.7545-13.843 5.9695-22.859 5.428-40.277-0.53306-17.146-2.9836-29.28-8.375-41.471l-2.5608-5.7903 4.321 2.5143c2.3766 1.3829 7.7666 3.8162 11.978 5.4075 7.0182 2.6518 8.8066 2.8944 21.439 2.9078 12.757 0.0136 14.276-0.19393 20.418-2.7891 13.863-5.8572 26.572-17.926 36.238-34.411 5.682-9.6909 7.8721-14.645 18.954-42.879 4.959-12.634 18.712-47.549 30.562-77.59s29.447-74.717 39.105-99.28c9.6578-24.563 17.789-44.662 18.07-44.665 0.28075-0.002 8.412 20.095 18.069 44.661 9.6574 24.566 27.255 69.243 39.106 99.284s25.682 65.186 30.735 78.101c13.608 34.776 20.293 47.57 31.19 59.69 5.9825 6.654 15.779 13.653 24.025 17.165 5.9355 2.5278 7.5187 2.7408 20.222 2.7211 12.624-0.0196 14.426-0.26466 21.439-2.9146 4.2113-1.5912 9.5669-4.0044 11.901-5.3626l4.2444-2.4694-2.847 6.9958c-5.432 13.348-7.3334 22.988-7.9141 40.123-0.58902 17.38 0.61889 26.391 5.4065 40.33 1.3645 3.9728 2.4809 7.4659 2.4809 7.7626 0 0.29667-2.4119-0.10056-5.3598-0.8828-12.454-3.3046-25.876 1.6989-39.917 14.881-30.316 28.461-72.515 49.236-121.54 59.835-6.6791 1.4441-12.588 2.4776-13.13 2.2967-0.54258-0.18087 3.5439-1.6034 9.0811-3.1613 46.297-13.025 76.352-37.439 82.684-67.163 1.8469-8.6698 1.4077-20.611-1.1164-30.352-0.88622-3.42-13.264-36.205-27.506-72.856s-31.857-82.028-39.144-100.84c-36.705-94.748-41.596-107.2-42.114-107.2-0.30784 0-8.0813 19.41-17.274 43.134-9.1931 23.724-33.183 85.552-53.312 137.4-20.128 51.844-37.376 97.097-38.327 100.56-2.6792 9.7547-2.3911 27.902 0.57811 36.415 8.758 25.11 34.163 45.497 72.294 58.018 6.6275 2.1761 13.658 4.437 15.623 5.0243 6.5002 1.9425-0.32833 1.1437-11.549-1.351zm22.834-16.42c1.0928-3.1762 1.9869-6.1202 1.9869-6.5423 0-0.42204-2.0666-2.0729-4.5923-3.6686-2.5258-1.5957-4.5932-3.2239-4.5942-3.6182-0.00098-0.39435 2.8334-0.85376 6.2987-1.0209l6.3005-0.30395 1.4871-5.3598c0.81792-2.9479 1.8289-5.3598 2.2466-5.3598 0.41768 0 1.4286 2.4119 2.2466 5.3598l1.4871 5.3598 6.3006 0.30395c3.4653 0.16717 6.2997 0.62658 6.2987 1.0209-0.00098 0.39433-2.0684 2.0226-4.5942 3.6182-2.5258 1.5957-4.5923 3.2466-4.5923 3.6686 0 0.42205 0.89408 3.3661 1.9868 6.5423 1.0928 3.1762 1.7144 5.7749 1.3813 5.7749-0.33305 0-2.5678-1.608-4.9662-3.5732-2.3984-1.9653-4.8952-3.5732-5.5484-3.5732-0.65326 0-3.15 1.608-5.5484 3.5732-2.3984 1.9653-4.6332 3.5732-4.9662 3.5732-0.33305 0 0.28853-2.5987 1.3813-5.7749zm-33.745-6.2027c0-0.54435 0.52878-2.5066 1.1751-4.3606 1.1137-3.1947 0.99366-3.5213-2.2971-6.2504l-3.4722-2.8796 4.3642-0.0275c3.8204-0.0241 4.492-0.37733 5.3901-2.835 0.56427-1.5442 1.2955-3.4967 1.625-4.3389 0.39002-0.99708 1.1215-0.0176 2.0966 2.8075 1.4694 4.2572 1.5873 4.3399 6.2619 4.3925 4.3852 0.0493 4.6018 0.16762 2.7225 1.4869-6.1159 4.2934-5.8308 3.7169-4.1684 8.4287 0.83904 2.3781 1.2855 4.3238 0.99223 4.3238-0.29331 0-2.0902-1.1875-3.993-2.6389l-3.4597-2.6389-3.6186 2.76c-1.9902 1.518-3.6186 2.3147-3.6186 1.7703zm71.465 0.40122c0-0.22991 0.63503-2.2179 1.4112-4.4178l1.4112-3.9998-3.7083-2.5094-3.7083-2.5094 4.7028-0.30518c4.5521-0.2954 4.7449-0.44254 6.0178-4.5942l1.3151-4.289 1.3378 3.0628c0.73581 1.6845 1.3586 3.6119 1.3839 4.283 0.0272 0.71995 2.0096 1.3478 4.8354 1.5314l4.7893 0.31116-3.6538 2.4935-3.6538 2.4935 1.4277 4.0465c0.78522 2.2256 1.2508 4.2234 1.0345 4.4397-0.21624 0.21624-1.7806-0.77426-3.4763-2.2011-3.5842-3.0159-4.6073-3.1767-6.4078-1.0071-1.3326 1.6056-5.0584 3.9415-5.0584 3.1713zm-90.862-31.43c-0.00001-0.35094 1.2756-0.89319 2.8346-1.205s4.0858-1.5511 5.6151-2.754l2.7804-2.1871v-45.199c0-50.716 0.576-46.986-7.7246-50.026-3.5717-1.3082 2.9296-1.4709 58.771-1.4709s62.342 0.16273 58.771 1.4709c-8.3006 3.0402-7.7246-0.69003-7.7246 50.026v45.199l2.7804 2.1871c1.5292 1.2029 4.056 2.4422 5.6151 2.754 1.5591 0.31181 2.8346 0.85406 2.8347 1.205 0.00001 0.35094-28.024 0.63808-62.276 0.63808s-62.276-0.28714-62.276-0.63808zm49.373-3.4469 2.6936-1.7649v-46.348-46.348l-4.4608-2.1672c-5.3799-2.6138-10.31-2.0424-14.302 1.6575l-2.6766 2.4806v44.016c0 29.533 0.36236 44.693 1.1013 46.073 2.5666 4.7957 12.025 6.0827 17.644 2.4008zm41.4-0.28906 2.6407-1.9713 0.26588-45.102 0.26586-45.102-2.4489-2.4489c-3.7036-3.7036-9.1432-4.3425-14.561-1.7102l-4.4711 2.1722 0.26554 46.594 0.26553 46.594 3.5732 1.9673c4.2894 2.3616 10.269 1.9428 14.205-0.99482z"/>
 </g>
</svg>
