<?xml version="1.0" encoding="UTF-8" standalone="no"?>
<!-- Created with Inkscape (http://www.inkscape.org/) -->
<svg id="svg3336" xmlns:rdf="http://www.w3.org/1999/02/22-rdf-syntax-ns#" xmlns="http://www.w3.org/2000/svg" height="80" viewBox="0 0 59.312351 80.000038" width="59.312" version="1.1" xmlns:cc="http://creativecommons.org/ns#" xmlns:dc="http://purl.org/dc/elements/1.1/">
 <metadata id="metadata3342">
  <rdf:RDF>
   <cc:Work rdf:about="">
    <dc:format>image/svg+xml</dc:format>
    <dc:type rdf:resource="http://purl.org/dc/dcmitype/StillImage"/>
    <dc:title/>
   </cc:Work>
  </rdf:RDF>
 </metadata>
 <path id="path3346" fill="#db0000" d="m26.109 76.44c-1.9002-1.9586-5.6235-5.8112-8.2738-8.5615-2.6502-2.7503-5.4864-5.6888-6.3031-6.5302-0.81672-0.84143-3.0398-3.1445-4.9404-5.1192s-4.1613-4.3084-5.0227-5.1875l-1.569-1.598v-22.54-22.54l0.559-0.0704c0.30744-0.0387 2.4125-0.34163 4.6779-0.67312s4.6485-0.67672 5.2958-0.76717c0.64726-0.0904 3.0039-0.43081 5.2369-0.75637s5.9136-0.86097 8.179-1.1898c4.2939-0.62327 5.0727-0.74509 5.6318-0.88082 0.18488-0.0449 0.37023-0.0322 0.41189 0.0283 0.0417 0.0604 0.55236 0.17184 1.1349 0.24759 0.58253 0.0757 3.2569 0.4578 5.943 0.84899 2.6861 0.39121 6.7109 0.97577 8.9439 1.2991 2.233 0.32327 5.8871 0.85445 8.1202 1.1804 2.233 0.32593 4.3117 0.62428 4.6191 0.66301l0.559 0.0704v22.54 22.54l-1.5679 1.5977c-0.86262 0.87792-3.1492 3.2386-5.0827 5.2451-1.9327 2.0065-4.1558 4.3102-4.9401 5.1192-0.78434 0.80907-3.6211 3.748-6.3039 6.5311-8.3849 8.698-11.665 12.063-11.761 12.063-0.0509 0-1.6473-1.6025-3.5477-3.5611z"/>
 <g id="layer3" transform="translate(-123 -633.99)">
  <path id="path5828" fill="#fff" d="m149.19 697.47c-1.6999-0.20189-3.4359-0.54203-4.8548-0.95121-1.1743-0.33865-4.107-1.4737-4.2011-1.6259-0.0321-0.0519 0.0276-0.3093 0.13268-0.57191 0.19058-0.47631 0.19197-0.47709 0.57156-0.31901 0.5992 0.24954 2.596 0.77043 3.6944 0.96372 1.4692 0.25857 3.8035 0.23183 4.9308-0.0565 0.50115-0.12817 1.0794-0.32001 1.2849-0.42631 0.49182-0.25433 1.3031-0.99107 1.5667-1.4228l0.21008-0.34404 0.18256 0.35305c0.4466 0.86363 1.5622 1.5581 3.0749 1.9142 1.0789 0.25395 4.2032 0.15215 5.6522-0.18416 2.8185-0.65416 6.1763-2.1418 8.9581-3.9688 1.3348-0.87665 1.8115-1.0712 1.8115-0.73908 0 0.15851-2.1239 1.7647-3.6638 2.7708-2.8957 1.8918-6.9915 3.6016-10.03 4.1871-3.1475 0.60647-6.488 0.75733-9.3204 0.42095zm-11.77-4.53c-3.4909-2.0372-6.7328-4.6986-9.367-7.6898-0.65279-0.74124-0.57169-0.68278 0.70008 0.50466 3.2043 2.9918 6.6201 5.3478 9.6105 6.6288 0.51577 0.22092 0.95661 0.41511 0.97967 0.43152 0.0656 0.0467-0.22806 0.87474-0.33324 0.93974-0.0517 0.032-0.76724-0.33475-1.59-0.81493zm20.769-0.54199c4.3564-1.4598 7.409-3.6987 8.4544-6.2005l0.17071-0.40857h1.051 1.051l0.68548 0.69271c0.37702 0.38099 0.68548 0.72963 0.68548 0.77476 0 0.16173-2.5798 1.7818-3.9435 2.4765-2.4164 1.2309-4.8251 2.1251-7.4401 2.762-2.3163 0.56418-2.5803 0.52838-0.71439-0.0969zm-9.1184-1.0861c-1.5856-0.36841-3.4973-0.94815-4.9655-1.5059-0.78618-0.29864-1.4468-0.56036-1.468-0.58159-0.0676-0.0676 0.33907-1.1581 0.43192-1.1581 0.049 0 0.38106 0.2086 0.7379 0.46355 1.4038 1.0029 3.7129 2.0662 5.863 2.6996 1.1745 0.34604 0.77303 0.40118-0.59934 0.0823zm24.234-1.249c0.0213-0.0886 0.53682-0.57453 1.1456-1.0798 0.60875-0.50533 1.6596-1.4442 2.3353-2.0864 1.0005-0.95101 1.114-1.0342 0.61162-0.44845-1.0422 1.2152-3.7026 3.7758-3.923 3.7758-0.11454 0-0.19082-0.0725-0.1695-0.16108zm-33.436-1.0974c-2.0853-1.111-3.7063-2.2662-5.5194-3.9334-1.3734-1.2629-2.2733-1.692-3.5588-1.6968-0.52742-0.002-1.1342 0.0411-1.3483 0.0958l-0.38937 0.0994 0.22486-0.52458c0.26759-0.62426 0.73368-2.4178 0.73368-2.8232 0-0.20727 0.54806-0.85802 1.9808-2.352 1.806-1.8832 2.0636-2.1058 2.9188-2.5228l0.93797-0.45731 2.4983 1.0972c1.3741 0.60344 2.5172 1.116 2.5402 1.139s-0.17766 0.59279-0.44594 1.2662c-0.79006 1.9831-1.0014 2.8904-1.0062 4.3195-0.006 1.8946 0.47954 3.2456 1.714 4.7653 0.33497 0.41237 0.60903 0.79365 0.60903 0.84727 0 0.31772-0.39258 1.3394-0.51407 1.3379-0.0799-0.00095-0.69884-0.29679-1.3755-0.65731zm28.946-4.5251-1.7632-1.7081-0.12966-1.0125c-0.17457-1.3633-0.28421-1.6749-3.3883-9.6289-1.4865-3.809-2.7347-7.0263-2.7738-7.1494-0.0593-0.18701 0.17663-0.35418 1.4336-1.0156 0.82758-0.43548 1.5443-0.79179 1.5927-0.79179s0.40603 0.82259 0.79467 1.828c1.398 3.6164 2.3156 5.2126 3.8133 6.6335 1.4711 1.3956 2.9862 2.0256 4.8288 2.0079 1.1626-0.0112 2.2236-0.26831 3.4004-0.82414 0.98774-0.46652 0.95258-0.53051 0.4458 0.81132-0.50981 1.3499-0.78964 3.0101-0.78964 4.6849 0 1.6493 0.17772 2.7939 0.65416 4.2132 0.17245 0.51373 0.29335 0.95426 0.26867 0.97894-0.0247 0.0247-0.21985-0.0161-0.4337-0.0907-0.2192-0.0764-0.76394-0.11147-1.2487-0.0804-1.2804 0.0822-2.1338 0.51447-3.5359 1.791-0.63718 0.58014-1.2142 1.0562-1.2824 1.0578-0.0681 0.002-0.91729-0.76559-1.8871-1.705zm-1.7018 0.3596c0.0463-0.28019 0.0972-0.52417 0.11321-0.54219 0.016-0.018 0.293 0.21066 0.61561 0.50816l0.58655 0.54091-0.69976 0.001-0.69978 0.001 0.0842-0.50943zm-36.982-6.3702c0-0.6154-0.0564-0.56307 1.4878-1.38l0.94843-0.50174-1.1187 1.1742c-0.61527 0.64583-1.1634 1.1922-1.2181 1.2142s-0.0995-0.20603-0.0995-0.50668zm0.62187-1.7005c0.034-0.0606 0.3722-0.66316 0.75151-1.3389l0.68965-1.2286 0.97625-0.001c1.8173-0.003 3.3074-0.61672 4.6949-1.9346 1.6308-1.5491 2.4133-2.927 4.0738-7.1738 0.58001-1.4834 1.0751-2.7213 1.1001-2.751s0.65646 0.55521 1.4031 1.2998l1.3576 1.3537-0.97347 2.5076-0.97346 2.5076-6.3904 3.3619c-6.6296 3.4877-6.8119 3.58-6.7097 3.3979zm8.8836-1.1724c-1.1998-0.53657-2.2082-1.004-2.2407-1.0387s0.8402-0.53367 1.9394-1.1088l1.9985-1.0456h1.124c0.85076 0 1.1097 0.0364 1.065 0.14983-0.0325 0.0824-0.39745 1.0264-0.81112 2.0977s-0.78396 1.9418-0.82287 1.9345c-0.0389-0.007-1.0524-0.45234-2.2523-0.9889zm-9.5064-0.0466c-0.18453-0.92318-0.56066-2.1994-0.84084-2.8531-0.1257-0.29324-0.20634-0.53317-0.17921-0.53317 0.0271 0 0.30045 0.13353 0.60738 0.29672 0.30693 0.1632 0.9301 0.41655 1.3848 0.563 0.45472 0.14645 0.82676 0.30197 0.82676 0.34561 0 0.10194-1.5604 2.8702-1.6179 2.8702-0.0238 0-0.10525-0.31016-0.18102-0.68924zm12.227-3.9241c0-0.0564 1.6173-0.90051 1.7254-0.90051 0.0293 0-0.0315 0.21576-0.13506 0.47947l-0.18833 0.47947h-0.70102c-0.38556 0-0.70102-0.0263-0.70102-0.0584zm16.913-7.6396c-0.12158-0.2821-0.20206-0.5464-0.17885-0.58733 0.0232-0.0409 0.3535-0.005 0.73394 0.0803 0.38045 0.0851 0.7996 0.17562 0.93146 0.20113 0.17757 0.0344 0.0446 0.14651-0.51288 0.43258l-0.75261 0.38619-0.22106-0.51289zm-14.567-1.6429-1.3057-1.3098 0.43043-1.1175c0.44116-1.1454 3.216-8.1897 6.6856-16.973 1.075-2.7211 1.9919-4.9056 2.0378-4.8546 0.0458 0.051 0.8208 1.9735 1.7222 4.2721l1.6388 4.1793-0.25039 0.75241c-0.24682 0.74172-0.26476 0.76123-1.2619 1.3728-0.55636 0.34119-1.0603 0.5902-1.12 0.55335-0.0596-0.0368-0.14111-0.19734-0.18109-0.35666-0.04-0.15932-0.18465-0.55083-0.32147-0.87001-0.20034-0.46737-0.27011-0.54218-0.35845-0.38432-0.0895 0.15986-5.718 14.592-6.1291 15.716-0.0663 0.1813-0.15669 0.32964-0.20081 0.32964-0.0441 0-0.66779-0.5894-1.3859-1.3098zm15.189 0.6677c-0.67306-0.14131-1.2728-0.31086-1.3328-0.37679-0.06-0.0659-0.90501-2.1696-1.8778-4.6748l-1.7688-4.5549 0.46453-1.3755 0.46453-1.3755 0.47946-0.1344c1.1936-0.33458 1.066-0.39011 1.4705 0.63965 0.20032 0.50995 1.3181 3.3453 2.4839 6.3008s2.1015 5.3856 2.0793 5.4003c-0.77156 0.51046-0.75591 0.5095-2.4628 0.15115zm-5.7558-12.158c-0.14454-0.37694-0.29507-0.77292-0.33452-0.87995-0.0529-0.14353 0.13379-0.32439 0.71147-0.68923 0.43076-0.27205 0.80758-0.49464 0.83738-0.49464 0.0669 0-0.76884 2.544-0.87493 2.6632-0.0421 0.0473-0.19486-0.22239-0.3394-0.59934zm1.4058-0.83952c0-0.0543 0.12868-0.4734 0.28595-0.93125 0.26542-0.77268 0.29452-0.81093 0.40529-0.53278 0.0656 0.16481 0.20476 0.50399 0.30917 0.75373 0.18469 0.44175 0.18264 0.45672-0.0756 0.55182-0.50146 0.18463-0.92476 0.25717-0.92476 0.15848z"/>
 </g>
</svg>
