<?xml version="1.0" encoding="UTF-8" standalone="no"?>
<!-- Created with Inkscape (http://www.inkscape.org/) -->
<svg id="svg3336" xmlns:rdf="http://www.w3.org/1999/02/22-rdf-syntax-ns#" xmlns="http://www.w3.org/2000/svg" height="60" viewBox="0 0 44.484363 60.000032" width="44.484" version="1.1" xmlns:cc="http://creativecommons.org/ns#" xmlns:dc="http://purl.org/dc/elements/1.1/">
 <metadata id="metadata3342">
  <rdf:RDF>
   <cc:Work rdf:about="">
    <dc:format>image/svg+xml</dc:format>
    <dc:type rdf:resource="http://purl.org/dc/dcmitype/StillImage"/>
    <dc:title/>
   </cc:Work>
  </rdf:RDF>
 </metadata>
 <path id="path3346" fill="#db0000" d="m19.582 57.33c-1.425-1.469-4.218-4.358-6.206-6.421-1.987-2.063-4.1143-4.266-4.727-4.898-0.6128-0.63-2.2798-2.358-3.7052-3.839-1.4255-1.481-3.121-3.231-3.7671-3.89l-1.1767-1.199v-16.905-16.904l0.41925-0.0531c0.23058-0.02902 1.8094-0.2562 3.5084-0.50482s3.4864-0.50752 3.9721-0.5754c0.48544-0.0678 2.2529-0.32311 3.9277-0.56728 1.6747-0.24417 4.4352-0.64573 6.1342-0.89235 3.2204-0.46745 3.8045-0.55882 4.2238-0.66061 0.13866-0.03367 0.27767-0.02415 0.30892 0.02123 0.03128 0.0453 0.41427 0.12888 0.85117 0.18569 0.4369 0.05677 2.4427 0.34335 4.4572 0.63674 2.0146 0.29341 5.0332 0.73183 6.7079 0.97432 1.6747 0.24245 4.4153 0.64084 6.0901 0.8853 1.6747 0.24445 3.2338 0.46821 3.4643 0.49726l0.41925 0.0528v16.905 16.905l-1.1759 1.1983c-0.64696 0.65844-2.3619 2.4289-3.812 3.9338-1.4495 1.5049-3.1168 3.2326-3.7051 3.8394-0.58825 0.6068-2.7158 2.811-4.7279 4.8983-6.2887 6.5235-8.7487 9.0472-8.8207 9.0472-0.03818 0-1.2355-1.2019-2.6608-2.6708z"/>
 <g id="layer1" transform="matrix(.088260 0 0 .088260 -10.857 -3.0183)">
  <path id="path4684" fill="#fff" d="m284.15 572.24c-49.245-50.462-93.162-95.029-97.594-99.037l-8.0582-7.2872-0.0497-51.772-0.0497-51.772 33.17-49.44c18.243-27.192 61.184-91.126 95.423-142.07 46.141-68.659 62.973-94.476 65.033-99.75 1.5286-3.9136 3.0328-7.1101 3.3427-7.1033 0.30989 0.007 1.8778 3.2693 3.4842 7.25 2.1155 5.2422 28.559 45.699 95.914 146.74 51.146 76.725 93.813 140.62 94.815 142 1.7038 2.338 1.8287 5.8704 1.926 54.5l0.10403 52-14.441 13.5c-7.9427 7.425-28.348 27.675-45.345 45-88.47 90.176-136.73 139-137.4 139-0.40764 0-41.032-41.288-90.277-91.75zm89.28 44.003v-44.747l-22.243 22.243-22.243 22.243 17.082 17.254c9.3949 9.4897 19.254 19.616 21.909 22.504 2.655 2.8875 4.9777 5.25 5.1616 5.25 0.18388 0 0.33433-20.136 0.33433-44.747zm25.026 21.675 22.313-23.072-21.911-21.928c-12.051-12.06-22.252-21.928-22.67-21.928-0.41718 0-0.75851 20.25-0.75851 45s0.16057 45 0.35683 45 10.398-10.382 22.67-23.072zm-27.297-68.021c-0.67642-0.35751-6.1798-2.0352-12.23-3.7283-23.663-6.6219-86.436-24.373-94.261-26.655l-8.261-2.4095-17.739-16.296-17.739-16.296 16.5 17.154c9.075 9.4349 33.15 34.242 53.5 55.128l37 37.973 22.23-22.111c14.066-13.991 21.778-22.349 21-22.761zm109.27-15.157c18.347-18.562 33.051-33.75 32.675-33.75-0.3758 0-4.6189 3.6586-9.4292 8.1303-4.8102 4.4717-9.6459 8.5169-10.746 8.9894-1.1 0.47247-26.525 7.6326-56.5 15.911-29.975 8.2788-55.347 15.308-56.382 15.62-1.5162 0.45723 2.3719 4.825 19.993 22.46l21.876 21.893 12.577-12.752c6.9174-7.0135 27.589-27.939 45.936-46.502zm-77.5 3.6814c49.077-13.54 64.248-17.701 73.908-20.269l9.9077-2.6338-7.3586-2.2377c-16.764-5.098-14.495-5.2083-43.678 2.1222-14.422 3.6226-26.588 6.5866-27.036 6.5866-0.44821 0-7.5485-4.4056-15.779-9.7901-8.23-5.3846-15.526-10.136-16.214-10.559-0.98582-0.6064-1.25 4.013-1.25 21.858 0 21.088 0.11896 22.59 1.75 22.085 0.9625-0.29753 12.55-3.5206 25.75-7.1624zm-29.5-15.046v-21.615l-2.75 1.7896c-1.5125 0.98431-8.4723 5.596-15.466 10.248l-12.716 8.4586-27.784-6.9147-27.784-6.9147-11.288 2.9954c-8.4381 2.2391-10.768 3.1878-9.2273 3.7577 1.1334 0.41926 12.513 3.6817 25.288 7.2498s35.827 10.074 51.227 14.458c15.4 4.3836 28.562 8 29.25 8.0364 0.96348 0.051 1.25-4.8883 1.25-21.549zm-15.468-16.955 15.468-10.57v-5.4304c0-2.9867-0.28994-5.4304-0.64431-5.4304-1.495 0-23.923 6.3458-24.632 6.9693-0.85909 0.75577 3.1495 5.4886 5.2385 6.1849 1.0444 0.34812 1.0777 0.90205 0.15786 2.6208l-1.1664 2.1794-9.727-3.5077-9.727-3.5077-17.738 4.7092c-9.7559 2.59-17.486 4.9663-17.177 5.2805 0.67848 0.69137 40.174 10.846 42.697 10.978 0.98018 0.0512 8.7427-4.6631 17.25-10.476zm73.968 5.17c11.55-2.939 20.325-5.6116 19.5-5.9392-0.825-0.32759-6.675-1.9879-13-3.6896s-13.563-3.7528-16.084-4.558c-4.4554-1.423-4.862-1.3664-14.5 2.0158-8.8643 3.1107-10.043 3.313-11.112 1.9075-0.99105-1.3025-0.56587-2.1669 2.4777-5.0374 2.9318-2.765 3.3755-3.6256 2.1964-4.2596-1.6576-0.89128-23.5-7.0398-25.009-7.0398-0.53279 0-0.96132 2.3625-0.95229 5.25l0.0164 5.25 16.234 10.662c8.9285 5.8641 16.909 10.689 17.734 10.722s10.95-2.3446 22.5-5.2836zm-150.27-3.84c0.66287-0.22096-2.8303-1.4134-7.7626-2.6498-7.4358-1.864-10.676-3.3771-18.968-8.8577-31.903-21.087-50.754-33.197-49-31.479 3.6348 3.5609 47.936 43.693 51.192 46.374l3.1916 2.6283 10.071-2.8071c5.539-1.5439 10.613-2.9879 11.276-3.2089zm237.67-19.131c14.904-13.681 27.099-25.074 27.099-25.318s-1.2375 0.42734-2.75 1.4919c-1.5125 1.0645-14.9 9.9568-29.75 19.761-26.253 17.332-27.277 17.899-37 20.495l-10 2.6694 7 2.075c12.599 3.7346 13.975 4.0654 16.151 3.8822 1.2655-0.10656 13.307-10.421 29.25-25.056zm-210.24 11.753c9.2636-2.5418 17.403-4.9206 18.086-5.2862 0.68396-0.36553-13.941-5.9936-32.5-12.507l-33.744-11.842-12.605-12.463-12.605-12.463-22.895-6.3737c-12.592-3.5056-24.807-6.3895-27.145-6.4088-2.3375-0.0193-4.25-0.47874-4.25-1.021 0-0.54224 2.0934-9.8797 4.6521-20.75 5.3314-22.65 5.439-19.282-1.5415-48.264l-3.9741-16.5-0.0682 47.637-0.0682 47.637 36.25 23.789c19.938 13.084 39.313 25.818 43.057 28.297 5.4 3.5764 9.3265 5.1748 19 7.7345 6.7064 1.7746 12.489 3.2666 12.85 3.3156 0.3614 0.049 8.2364-1.9906 17.5-4.5324zm161.91 1.4868c14.236-3.5652 10.329-1.3088 67.31-38.865l31.103-20.5 0.008-4.75 0.008-4.75-4.25 0.0355c-2.3375 0.0195-8.975 1.3574-14.75 2.973s-15.9 4.3695-22.5 6.1196l-12 3.1821-13 12.709-13 12.709-34.238 11.886c-18.83 6.5374-34.238 12.111-34.239 12.386-0.002 0.57374 32.566 9.702 35.255 9.8815 0.97693 0.0652 7.409-1.2921 14.294-3.0162zm-35.07-26.376c13.2-7.6024 24.358-14.128 24.794-14.501 0.43695-0.37295-7.8842 1.7392-18.491 4.6936s-19.814 5.9219-20.46 6.5945c-0.64564 0.67254-4.3275 5.0341-8.1819 9.6923-6.7774 8.1908-8.2813 11.633-3.8187 8.7409 1.1866-0.76904 12.957-7.6184 26.157-15.221zm-93.622 13.76c-11.073-14.174-15.1-18.232-19.15-19.297-2.325-0.61172-10.504-2.8621-18.176-5.0008-7.6715-2.1388-14.041-3.7904-14.154-3.6702-0.43922 0.46583 50.18 29.662 51.475 29.689 1.1613 0.0247 1.1621-0.24011 0.005-1.7208zm16.622-2.604c7.94-2.2035 11.323-3.5322 10-3.9271-1.1-0.32831-9.6349-2.7008-18.966-5.2723-9.3315-2.5715-17.65-4.9377-18.485-5.2582-0.83533-0.32055 1.9926 3.556 6.2843 8.6144 4.2917 5.0585 8.1101 9.1919 8.4852 9.1853 0.37517-0.007 6.0821-1.5105 12.682-3.3421zm53.394-5.767c4.5219-5.5682 6.6585-8.8797 5.5-8.5244-4.2306 1.2977-38.381 10.65-39.11 10.71-1.3849 0.11473 22.138 6.761 24.215 6.8417 1.3592 0.0528 4.3694-2.8399 9.3945-9.0277zm42.9-2.9549c17.212-6.0083 31.621-10.924 32.02-10.924 0.39899 0 4.9916-4.3364 10.206-9.6364 5.2141-5.3 8.5802-9.3188 7.4802-8.9308-1.1 0.38807-7.4 2.1962-14 4.0181-11.451 3.161-13.35 4.1013-41.5 20.549-16.225 9.4801-28.6 16.924-27.5 16.542 1.1-0.38183 16.082-5.6101 33.294-11.618zm-128.34 10.231c-2.1057-1.8731-56.457-33.157-57.657-33.187-0.71097-0.0179-6.6591-1.5623-13.218-3.4321l-11.925-3.3997 9.0001 9.0001 9.0001 9.0001 28.425 9.9698c15.634 5.4834 30 10.605 31.925 11.381 4.0754 1.6427 5.8436 1.9084 4.45 0.66878zm46.767-31.156 0.28347-25.001-38.261 0.00074-38.261 0.00075 15.529 18.75 15.529 18.75 21.733 6.1355c11.953 3.3745 22.055 6.187 22.449 6.25 0.39409 0.063 0.84409-11.136 1-24.886zm26.146 18.409 21.863-5.9085 13.637-16.459c7.5005-9.0525 14.457-17.49 15.46-18.75l1.8226-2.291h-38.573-38.573v25.107c0 19.658 0.27127 25.01 1.25 24.658 0.6875-0.24668 11.088-3.1073 23.113-6.357zm-75.55-8.1585c-0.82342-0.9625-7.7167-9.3024-15.318-18.533l-13.821-16.783-10.017 0.28318-10.017 0.28318-0.84542 3c-0.46498 1.65-1.4656 5.573-2.2237 8.7177l-1.3783 5.7177 6.4833 3.6257c3.5658 1.9941 10.385 4.6909 15.154 5.9929 4.7688 1.302 14.07 3.9093 20.67 5.7942 6.6 1.8848 12.182 3.4775 12.405 3.5394 0.22273 0.0618-0.26873-0.67506-1.0921-1.6376zm113.69-2.295c6.05-1.6683 15.275-4.1884 20.5-5.6004 5.225-1.4119 12.328-4.1416 15.784-6.066 5.4204-3.018 6.1886-3.7936 5.5898-5.6438-0.38187-1.1797-1.4375-5.0699-2.3459-8.6449l-1.6516-6.5-10.438-0.25394-10.438-0.25394-8 9.7053c-19.487 23.641-21.594 26.302-20.82 26.297 0.45087-0.003 5.7698-1.3708 11.82-3.0391zm-171.68-13.91c-0.18333-0.53196-3.4689-5.032-7.3013-10l-6.9679-9.0328h-12.023-12.023l6.7144 6.7144c6.5574 6.5574 6.9664 6.7883 17.491 9.8739 11.694 3.4286 14.624 3.9361 14.11 2.4444zm232.43-2.6477c10.722-2.8537 10.792-2.8924 17.473-9.6252l6.7082-6.76h-12.16-12.16l-7.0632 9.1267c-7.2961 9.4275-8.312 11.457-5.3132 10.615 0.96249-0.2703 6.5942-1.7808 12.515-3.3567zm-234.49-16.2c-1.5002-0.17144-4.301-0.17144-6.2238 0l-3.4962 0.31169 5.7238 7.2637 5.7239 7.2638 0.5-7.2638 0.5-7.2637-2.7277-0.31169zm226.6 7.0617 5.7132-7.25h-6.0426-6.0426v7.6667c0 4.2167 0.14822 7.4792 0.32937 7.25 0.18115-0.22917 2.9003-3.6792 6.0426-7.6667zm-263.42-1.7796-5.5296-5.5296-13.826 0.27959-13.826 0.27958 18.367 5.1422c10.102 2.8282 18.812 5.1907 19.356 5.25 0.54402 0.0593-1.4992-2.3805-4.5404-5.4218zm319.55-2.5223 10-2.7943-14.034-0.0769-14.034-0.0769-5.417 5.4851-5.417 5.4851 9.4512-2.6139c5.1981-1.4377 13.951-3.8714 19.451-5.4082zm-274.26-0.44814c0.26285-1.375 0.0903-2.5-0.38342-2.5-0.47373 0-0.86132 1.125-0.86132 2.5s0.17253 2.5 0.38342 2.5c0.21088 0 0.59848-1.125 0.86132-2.5zm206.34-2.2525c-1.0894-1.0894-1.5028 0.33508-0.81164 2.7962l0.68983 2.4563 0.35131-2.3359c0.19322-1.2847 0.0899-2.5972-0.2295-2.9167zm-229.75-3.0994c-0.54905-1.4033-62.242-79.073-62.557-78.757-0.15995 0.15996 1.8024 9.206 4.3608 20.102l4.6516 19.811-4.278 18.381c-2.3529 10.109-4.0583 18.601-3.7897 18.869 0.26857 0.26858 8.0427-0.007 17.276-0.61314 16.414-1.077 16.834-1.0552 18.868 0.97876 1.8731 1.8731 3.2611 2.0802 13.941 2.0802 6.5236 0 11.711-0.38338 11.528-0.85197zm18.167-6.9972c0-4.317 0.24995-11.18 0.55545-15.25l0.55545-7.4009-16.454-19.815c-9.0498-10.898-16.665-20.026-16.922-20.283-0.50731-0.5073-9.6319-3.032-33.562-9.2863l-15.327-4.0059 2.8065 3.6956c2.3722 3.1237 40.46 51.298 58.067 73.446l5.3663 6.75h7.4574 7.4574v-7.8491zm8.788-1.4834 2.288-8.6792-2.788-3.4941c-1.5334-1.9218-2.8649-3.1566-2.9588-2.7442-0.094 0.41246-0.37287 6.0554-0.61978 12.54-0.54395 14.286 0.74178 15.035 4.0786 2.3776zm11.106 1.7831c-3.4345-4.1521-6.5161-7.7171-6.8479-7.9222-0.33181-0.20508-1.5491 3.1921-2.7051 7.5494l-2.1018 7.9222h8.9497 8.9497l-6.2446-7.5494zm86.47 2.9098c0.95638-6.9776 0.76439-37.36-0.23608-37.36-0.77414 0-73.007 40.574-74.045 41.591-0.22916 0.22479 16.247 0.40871 36.614 0.40871h37.031l0.63593-4.6396zm75.553 4.2527c-0.22916-0.21278-16.617-9.4926-36.417-20.622s-36.338-20.432-36.75-20.672c-0.41251-0.24052-0.75 9.0392-0.75 20.622v21.059h37.167c20.442 0 36.979-0.17409 36.75-0.38687zm12.498-8.7045c4.1721-5.0003 7.5762-9.8378 7.5647-10.75-0.0115-0.91224-3.5801-14.934-7.9302-31.159l-7.9093-29.5-0.0698 40.25c-0.0384 22.138 0.11667 40.25 0.3446 40.25 0.22792 0 3.8279-4.0911 8-9.0914zm12.598 8.3414c0.0323-1.8892-3.4441-15.25-3.968-15.25-0.68099 0-13.045 14.655-13.045 15.463 0 0.29554 3.825 0.53734 8.5 0.53734s8.5058-0.3375 8.5128-0.75zm4.3648-12c-0.35975-7.0125-0.721-12.842-0.80278-12.954-0.0818-0.11199-1.4312 1.4036-2.9986 3.368l-2.8499 3.5716 2.3554 9.382c1.4588 5.8108 2.8492 9.382 3.6527 9.382 1.0294 0 1.1622-2.6328 0.64319-12.75zm44.67-19.937c13.999-17.978 28.766-36.946 32.816-42.151 4.0501-5.205 6.7501-9.2379 6-8.962-0.75009 0.27586-11.489 3.0978-23.864 6.271l-22.5 5.7694-16.5 20.017-16.5 20.017 0.37037 15.113c0.2037 8.3121 0.56777 15.45 0.80902 15.863 0.24126 0.4125 3.4711 0.75 7.1774 0.75h6.7387l25.452-32.687zm3.5349 30.609c2.1591-2.0284 2.609-2.0516 18.96-0.97876 9.2116 0.60439 16.973 0.87381 17.248 0.59871 0.27511-0.27511-0.67878-5.5722-2.1197-11.771-1.441-6.1991-3.3372-14.51-4.214-18.469l-1.5941-7.1982 3.6447-18.302c2.0046-10.066 3.9019-19.427 4.2164-20.802 0.39062-1.708-1.1535-0.28232-4.8741 4.5-10.181 13.086-56.101 71.994-57.1 73.25-0.7847 0.98617 1.6032 1.25 11.313 1.25 11.085 0 12.528-0.20644 14.52-2.0776zm-231.81-52.956-0.27256-18.034-7 26.784c-3.85 14.731-7 27.086-7 27.456 0 0.36955 3.15 4.5197 7 9.2226l7 8.5507 0.27256-17.973c0.1499-9.8849 0.1499-26.088 0-36.007zm39.359 32.908c20.553-11.62 37.499-21.237 37.657-21.372 0.15898-0.13531-4.116-2.7208-9.5-5.7456-46.024-25.857-64.445-35.933-64.885-35.493-0.42446 0.42445-1.1928 83.736-0.77226 83.737 0.0724 0.00014 16.947-9.5066 37.5-21.126zm116.74-63.665c-0.3431-0.1602-14.743 7.672-32 17.405-43.047 24.278-42.182 23.765-41.913 24.886 0.13177 0.55 16.731 10.241 36.888 21.536l36.649 20.536 0.5-42.036c0.27499-23.12 0.21928-42.167-0.12383-42.327zm117.89 22.609-0.27008-21.317-4.2854 21.5c-2.357 11.825-4.2718 22.4-4.2553 23.5 0.0166 1.1 1.945 10.257 4.2854 20.35l4.2553 18.35 0.27008-20.532c0.14856-11.293 0.14856-30.125 0-41.85zm-281.73 11.277c4.4517-16.661 7.8798-30.507 7.618-30.769-0.26184-0.26184-0.80559 0.57034-1.2084 1.8493-0.40274 1.279-5.0004 12.45-10.217 24.825-12.291 29.157-11.811 27.273-8.0401 31.567 1.6901 1.9249 3.226 3.3468 3.4132 3.1596 0.18714-0.18713 3.9826-13.972 8.4343-30.633zm189.52 24.312c1.3533-1.9326 0.65404-4.0148-9.068-27-10.098-23.873-14.118-32.852-13.081-29.213 0.26538 0.9309 3.4606 13.081 7.1006 27 3.6399 13.919 7.3178 27.745 8.173 30.725l1.555 5.4172 1.9268-2.4172c1.0598-1.3295 2.5868-3.3596 3.3933-4.5113zm-196.21-33.406 10.317-24.5-20.581-0.5-20.581-0.5-6.7755 6.4985c-3.7265 3.5742-6.6515 7.0195-6.5 7.6564 0.15152 0.63686 7.4467 9.825 16.212 20.418 13.454 16.26 16.065 18.962 16.764 17.344 0.45538-1.0541 5.4707-12.942 11.145-26.417zm218.35 6.885c8.1436-9.8802 14.871-18.509 14.949-19.174 0.0786-0.66579-2.8464-3.9105-6.5-7.2105l-6.643-6-20.589 0.5-20.589 0.5 10.949 25.781c8.7964 20.713 11.211 25.564 12.282 24.674 0.73338-0.60867 7.9964-9.1904 16.14-19.071zm-124.69-11.385v-20.5h-37.215-37.215l36.465 20.473c20.056 11.26 36.803 20.485 37.215 20.5 0.4125 0.0149 0.75-9.1979 0.75-20.473zm32.802 2.3338c29.126-16.431 38.364-21.73 39.115-22.44 0.22917-0.21664-15.633-0.39389-35.25-0.39389h-35.667v20.107c0 17.762 0.18101 20.038 1.5521 19.511 0.85365-0.32757 14.466-7.8807 30.25-16.785zm-169.88-17.56c1.69-2.0503 3.0728-4.0753 3.0728-4.5 0-0.42469-9.5625-0.73699-21.25-0.694l-21.25 0.0782 15.5 4.3284c8.525 2.3806 16.705 4.3704 18.177 4.4218 1.9383 0.0677 3.5253-0.93543 5.75-3.6344zm297.88-0.87053 15.311-3.9016-10.061-0.28498c-5.5335-0.15674-14.589-0.15674-20.124 0l-10.063 0.28498 3.6908 4.308c2.03 2.3694 4.1959 4.1252 4.8132 3.9016 0.61733-0.22352 8.0124-2.1621 16.433-4.308zm-279.89-25.402 12.676-18.5 12.333-30c6.7831-16.5 19.423-47.325 28.089-68.5 32.183-78.637 55.206-134.56 56.199-136.5 2.3826-4.662-2.0734 1.7013-22.409 32-11.812 17.6-32.058 47.75-44.991 67s-43.825 65.238-68.65 102.19c-24.825 36.957-45.257 67.742-45.405 68.411-0.50549 2.2913 4.7635 2.7101 32.106 2.552l27.375-0.15822 12.676-18.5zm43.388 3.25c3.6288-8.6625 8.1952-21.825 10.148-29.25 1.9524-7.425 7.3522-27.883 12-45.462 4.6474-17.579 8.3575-32.048 8.2447-32.155-0.1128-0.10613-5.1551 7.0596-11.205 15.924-6.05 8.8642-17.706 25.809-25.903 37.655-14.246 20.587-15.229 22.332-22.288 39.538-6.8148 16.61-7.8239 18.444-13.065 23.75l-5.6803 5.75h20.576 20.576l6.5978-15.75zm75.424-76.25 0.23694-91.5-12.856 30.5c-58.46 138.69-62.093 147.57-62.112 151.76-0.004 0.99841 7.7787 1.2074 37.244 1l37.25-0.26217 0.23694-91.5zm76.703 88.25c-0.70223-4.0475-4.6288-14.162-14.655-37.75-3.5067-8.25-18.28-43.093-32.83-77.429l-26.455-62.429-0.61262 89.929c-0.33694 49.461-0.42288 90.267-0.19098 90.679 0.2319 0.4125 17.29 0.75 37.908 0.75h37.486l-0.65061-3.75zm43.377-2c-5.147-5.2659-6.2421-7.2654-13.007-23.75l-7.3867-18-26.337-38c-14.486-20.9-26.076-37.1-25.757-36 0.3193 1.1 3.806 14.375 7.7481 29.5s9.0978 34.882 11.457 43.905c2.816 10.77 6.6054 21.848 11.031 32.25l6.742 15.845h20.565 20.565l-5.6202-5.75zm71.886 4.47c0.82959-0.53786-26.607-42.442-88.389-135-77.638-116.31-93.844-140.37-91.069-135.22 0.49047 0.91105 16.743 40.361 39.962 97 4.9604 12.1 19.481 47.425 32.268 78.5s23.424 56.96 23.637 57.523c0.21304 0.5628 6.2374 9.4741 13.387 19.803l13 18.78 28-0.30281c15.4-0.16654 28.541-0.65379 29.203-1.0828zm-304.94-19.4c3.722-9.0422 3.6876-9.0117-6.4148 5.6733-10.546 15.33-10.595 15.457-3.1652 8.218 5.1638-5.031 7.0715-7.7972 9.58-13.891zm234.82 5.0952c-5.2645-7.5723-9.5719-13.54-9.5719-13.262 0 0.27835 1.5188 3.9988 3.375 8.2677 2.4704 5.6812 4.9344 9.3374 9.1928 13.641 3.1998 3.2335 5.9884 5.7085 6.1968 5.5 0.20849-0.20849-3.9283-6.5746-9.1928-14.147zm-67.341-72.027-10.812-40.895-16.339-23.5c-15.992-23.001-19.446-27.684-17.221-23.352 0.60674 1.1816 10.508 24.357 22.003 51.5 31.363 74.059 32.139 75.918 32.139 77.094 0 0.59985 0.23469 0.85594 0.52156 0.56908 0.28685-0.28686-4.344-18.924-10.291-41.417zm-111.43 28.105c7.7924-18.807 16.732-40.071 33.213-79 8.3826-19.8 15.474-36.675 15.758-37.5 0.28416-0.825-7.1209 9.608-16.456 23.184l-16.972 24.684-8.7664 33.316c-4.8215 18.324-9.6232 36.289-10.67 39.923-3.4802 12.079-2.5769 11.01 3.8939-4.6078zm-10.791-33.475 24.325-35.475 3.7866-14.025c7.787-28.842 32.882-123.86 32.864-124.43-0.0103-0.32752-9.6227 22.805-21.361 51.405s-27.073 65.95-34.077 83c-7.0043 17.05-16.031 39.1-20.06 49-4.0286 9.9-8.289 20.25-9.4676 23s-1.736 4.55-1.2385 4c0.49744-0.55 11.851-16.964 25.229-36.475zm151.59 6.9373c-6.2206-15.104-25.415-61.76-42.654-103.68-17.239-41.919-31.44-76.119-31.557-76-0.11696 0.11907 6.0477 23.841 13.699 52.716 7.6515 28.875 15.774 59.64 18.049 68.368l4.1371 15.868 24.511 35.402c13.481 19.471 24.649 35.264 24.818 35.095 0.1688-0.16878-4.7827-12.665-11.003-27.769zm-104.18-75.85c9.2181-13.413 17.623-26.398 18.676-28.857 1.8067-4.2149 1.9013-7.0144 1.6559-49.018l-0.26022-44.547-6.8848 26.404c-3.7866 14.522-12.673 48.229-19.748 74.904-7.0745 26.675-12.864 48.713-12.865 48.973-0.001 0.25987 0.59776-0.41513 1.3314-1.5 0.7336-1.0849 8.8759-12.946 18.094-26.359zm52.497-10.121c-5.4578-20.621-14.311-54.143-19.674-74.493l-9.7506-37-0.26058 44.495c-0.22677 38.722-0.0546 45.01 1.3271 48.463 1.3078 3.2684 37.546 56.699 38.107 56.186 0.0957-0.0874-4.2915-17.031-9.7494-37.652z"/>
 </g>
 <g id="layer1-3" transform="matrix(.088260 0 0 .088260 -10.933 -3.2027)">
  <path id="path4684-1" fill="#fff" d="m284.15 572.24c-49.245-50.462-93.162-95.029-97.594-99.037l-8.0582-7.2872-0.0497-51.772-0.0497-51.772 33.17-49.44c18.243-27.192 61.184-91.126 95.423-142.07 46.141-68.659 62.973-94.476 65.033-99.75 1.5286-3.9136 3.0328-7.1101 3.3427-7.1033 0.30989 0.007 1.8778 3.2693 3.4842 7.25 2.1155 5.2422 28.559 45.699 95.914 146.74 51.146 76.725 93.813 140.62 94.815 142 1.7038 2.338 1.8287 5.8704 1.926 54.5l0.10403 52-14.441 13.5c-7.9427 7.425-28.348 27.675-45.345 45-88.47 90.176-136.73 139-137.4 139-0.40764 0-41.032-41.288-90.277-91.75zm89.28 44.003v-44.747l-22.243 22.243-22.243 22.243 17.082 17.254c9.3949 9.4897 19.254 19.616 21.909 22.504 2.655 2.8875 4.9777 5.25 5.1616 5.25 0.18388 0 0.33433-20.136 0.33433-44.747zm25.026 21.675 22.313-23.072-21.911-21.928c-12.051-12.06-22.252-21.928-22.67-21.928-0.41718 0-0.75851 20.25-0.75851 45s0.16057 45 0.35683 45 10.398-10.382 22.67-23.072zm-27.297-68.021c-0.67642-0.35751-6.1798-2.0352-12.23-3.7283-23.663-6.6219-86.436-24.373-94.261-26.655l-8.261-2.4095-17.739-16.296-17.739-16.296 16.5 17.154c9.075 9.4349 33.15 34.242 53.5 55.128l37 37.973 22.23-22.111c14.066-13.991 21.778-22.349 21-22.761zm109.27-15.157c18.347-18.562 33.051-33.75 32.675-33.75-0.3758 0-4.6189 3.6586-9.4292 8.1303-4.8102 4.4717-9.6459 8.5169-10.746 8.9894-1.1 0.47247-26.525 7.6326-56.5 15.911-29.975 8.2788-55.347 15.308-56.382 15.62-1.5162 0.45723 2.3719 4.825 19.993 22.46l21.876 21.893 12.577-12.752c6.9174-7.0135 27.589-27.939 45.936-46.502zm-77.5 3.6814c49.077-13.54 64.248-17.701 73.908-20.269l9.9077-2.6338-7.3586-2.2377c-16.764-5.098-14.495-5.2083-43.678 2.1222-14.422 3.6226-26.588 6.5866-27.036 6.5866-0.44821 0-7.5485-4.4056-15.779-9.7901-8.23-5.3846-15.526-10.136-16.214-10.559-0.98582-0.6064-1.25 4.013-1.25 21.858 0 21.088 0.11896 22.59 1.75 22.085 0.9625-0.29753 12.55-3.5206 25.75-7.1624zm-29.5-15.046v-21.615l-2.75 1.7896c-1.5125 0.98431-8.4723 5.596-15.466 10.248l-12.716 8.4586-27.784-6.9147-27.784-6.9147-11.288 2.9954c-8.4381 2.2391-10.768 3.1878-9.2273 3.7577 1.1334 0.41926 12.513 3.6817 25.288 7.2498s35.827 10.074 51.227 14.458c15.4 4.3836 28.562 8 29.25 8.0364 0.96348 0.051 1.25-4.8883 1.25-21.549zm-15.468-16.955 15.468-10.57v-5.4304c0-2.9867-0.28994-5.4304-0.64431-5.4304-1.495 0-23.923 6.3458-24.632 6.9693-0.85909 0.75577 3.1495 5.4886 5.2385 6.1849 1.0444 0.34812 1.0777 0.90205 0.15786 2.6208l-1.1664 2.1794-9.727-3.5077-9.727-3.5077-17.738 4.7092c-9.7559 2.59-17.486 4.9663-17.177 5.2805 0.67848 0.69137 40.174 10.846 42.697 10.978 0.98018 0.0512 8.7427-4.6631 17.25-10.476zm73.968 5.17c11.55-2.939 20.325-5.6116 19.5-5.9392-0.825-0.32759-6.675-1.9879-13-3.6896s-13.563-3.7528-16.084-4.558c-4.4554-1.423-4.862-1.3664-14.5 2.0158-8.8643 3.1107-10.043 3.313-11.112 1.9075-0.99105-1.3025-0.56587-2.1669 2.4777-5.0374 2.9318-2.765 3.3755-3.6256 2.1964-4.2596-1.6576-0.89128-23.5-7.0398-25.009-7.0398-0.53279 0-0.96132 2.3625-0.95229 5.25l0.0164 5.25 16.234 10.662c8.9285 5.8641 16.909 10.689 17.734 10.722s10.95-2.3446 22.5-5.2836zm-150.27-3.84c0.66287-0.22096-2.8303-1.4134-7.7626-2.6498-7.4358-1.864-10.676-3.3771-18.968-8.8577-31.903-21.087-50.754-33.197-49-31.479 3.6348 3.5609 47.936 43.693 51.192 46.374l3.1916 2.6283 10.071-2.8071c5.539-1.5439 10.613-2.9879 11.276-3.2089zm237.67-19.131c14.904-13.681 27.099-25.074 27.099-25.318s-1.2375 0.42734-2.75 1.4919c-1.5125 1.0645-14.9 9.9568-29.75 19.761-26.253 17.332-27.277 17.899-37 20.495l-10 2.6694 7 2.075c12.599 3.7346 13.975 4.0654 16.151 3.8822 1.2655-0.10656 13.307-10.421 29.25-25.056zm-210.24 11.753c9.2636-2.5418 17.403-4.9206 18.086-5.2862 0.68396-0.36553-13.941-5.9936-32.5-12.507l-33.744-11.842-12.605-12.463-12.605-12.463-22.895-6.3737c-12.592-3.5056-24.807-6.3895-27.145-6.4088-2.3375-0.0193-4.25-0.47874-4.25-1.021 0-0.54224 2.0934-9.8797 4.6521-20.75 5.3314-22.65 5.439-19.282-1.5415-48.264l-3.9741-16.5-0.0682 47.637-0.0682 47.637 36.25 23.789c19.938 13.084 39.313 25.818 43.057 28.297 5.4 3.5764 9.3265 5.1748 19 7.7345 6.7064 1.7746 12.489 3.2666 12.85 3.3156 0.3614 0.049 8.2364-1.9906 17.5-4.5324zm161.91 1.4868c14.236-3.5652 10.329-1.3088 67.31-38.865l31.103-20.5 0.008-4.75 0.008-4.75-4.25 0.0355c-2.3375 0.0195-8.975 1.3574-14.75 2.973s-15.9 4.3695-22.5 6.1196l-12 3.1821-13 12.709-13 12.709-34.238 11.886c-18.83 6.5374-34.238 12.111-34.239 12.386-0.002 0.57374 32.566 9.702 35.255 9.8815 0.97693 0.0652 7.409-1.2921 14.294-3.0162zm-35.07-26.376c13.2-7.6024 24.358-14.128 24.794-14.501 0.43695-0.37295-7.8842 1.7392-18.491 4.6936s-19.814 5.9219-20.46 6.5945c-0.64564 0.67254-4.3275 5.0341-8.1819 9.6923-6.7774 8.1908-8.2813 11.633-3.8187 8.7409 1.1866-0.76904 12.957-7.6184 26.157-15.221zm-93.622 13.76c-11.073-14.174-15.1-18.232-19.15-19.297-2.325-0.61172-10.504-2.8621-18.176-5.0008-7.6715-2.1388-14.041-3.7904-14.154-3.6702-0.43922 0.46583 50.18 29.662 51.475 29.689 1.1613 0.0247 1.1621-0.24011 0.005-1.7208zm16.622-2.604c7.94-2.2035 11.323-3.5322 10-3.9271-1.1-0.32831-9.6349-2.7008-18.966-5.2723-9.3315-2.5715-17.65-4.9377-18.485-5.2582-0.83533-0.32055 1.9926 3.556 6.2843 8.6144 4.2917 5.0585 8.1101 9.1919 8.4852 9.1853 0.37517-0.007 6.0821-1.5105 12.682-3.3421zm53.394-5.767c4.5219-5.5682 6.6585-8.8797 5.5-8.5244-4.2306 1.2977-38.381 10.65-39.11 10.71-1.3849 0.11473 22.138 6.761 24.215 6.8417 1.3592 0.0528 4.3694-2.8399 9.3945-9.0277zm42.9-2.9549c17.212-6.0083 31.621-10.924 32.02-10.924 0.39899 0 4.9916-4.3364 10.206-9.6364 5.2141-5.3 8.5802-9.3188 7.4802-8.9308-1.1 0.38807-7.4 2.1962-14 4.0181-11.451 3.161-13.35 4.1013-41.5 20.549-16.225 9.4801-28.6 16.924-27.5 16.542 1.1-0.38183 16.082-5.6101 33.294-11.618zm-128.34 10.231c-2.1057-1.8731-56.457-33.157-57.657-33.187-0.71097-0.0179-6.6591-1.5623-13.218-3.4321l-11.925-3.3997 9.0001 9.0001 9.0001 9.0001 28.425 9.9698c15.634 5.4834 30 10.605 31.925 11.381 4.0754 1.6427 5.8436 1.9084 4.45 0.66878zm46.767-31.156 0.28347-25.001-38.261 0.00074-38.261 0.00075 15.529 18.75 15.529 18.75 21.733 6.1355c11.953 3.3745 22.055 6.187 22.449 6.25 0.39409 0.063 0.84409-11.136 1-24.886zm26.146 18.409 21.863-5.9085 13.637-16.459c7.5005-9.0525 14.457-17.49 15.46-18.75l1.8226-2.291h-38.573-38.573v25.107c0 19.658 0.27127 25.01 1.25 24.658 0.6875-0.24668 11.088-3.1073 23.113-6.357zm-75.55-8.1585c-0.82342-0.9625-7.7167-9.3024-15.318-18.533l-13.821-16.783-10.017 0.28318-10.017 0.28318-0.84542 3c-0.46498 1.65-1.4656 5.573-2.2237 8.7177l-1.3783 5.7177 6.4833 3.6257c3.5658 1.9941 10.385 4.6909 15.154 5.9929 4.7688 1.302 14.07 3.9093 20.67 5.7942 6.6 1.8848 12.182 3.4775 12.405 3.5394 0.22273 0.0618-0.26873-0.67506-1.0921-1.6376zm113.69-2.295c6.05-1.6683 15.275-4.1884 20.5-5.6004 5.225-1.4119 12.328-4.1416 15.784-6.066 5.4204-3.018 6.1886-3.7936 5.5898-5.6438-0.38187-1.1797-1.4375-5.0699-2.3459-8.6449l-1.6516-6.5-10.438-0.25394-10.438-0.25394-8 9.7053c-19.487 23.641-21.594 26.302-20.82 26.297 0.45087-0.003 5.7698-1.3708 11.82-3.0391zm-171.68-13.91c-0.18333-0.53196-3.4689-5.032-7.3013-10l-6.9679-9.0328h-12.023-12.023l6.7144 6.7144c6.5574 6.5574 6.9664 6.7883 17.491 9.8739 11.694 3.4286 14.624 3.9361 14.11 2.4444zm232.43-2.6477c10.722-2.8537 10.792-2.8924 17.473-9.6252l6.7082-6.76h-12.16-12.16l-7.0632 9.1267c-7.2961 9.4275-8.312 11.457-5.3132 10.615 0.96249-0.2703 6.5942-1.7808 12.515-3.3567zm-234.49-16.2c-1.5002-0.17144-4.301-0.17144-6.2238 0l-3.4962 0.31169 5.7238 7.2637 5.7239 7.2638 0.5-7.2638 0.5-7.2637-2.7277-0.31169zm226.6 7.0617 5.7132-7.25h-6.0426-6.0426v7.6667c0 4.2167 0.14822 7.4792 0.32937 7.25 0.18115-0.22917 2.9003-3.6792 6.0426-7.6667zm-263.42-1.7796-5.5296-5.5296-13.826 0.27959-13.826 0.27958 18.367 5.1422c10.102 2.8282 18.812 5.1907 19.356 5.25 0.54402 0.0593-1.4992-2.3805-4.5404-5.4218zm319.55-2.5223 10-2.7943-14.034-0.0769-14.034-0.0769-5.417 5.4851-5.417 5.4851 9.4512-2.6139c5.1981-1.4377 13.951-3.8714 19.451-5.4082zm-274.26-0.44814c0.26285-1.375 0.0903-2.5-0.38342-2.5-0.47373 0-0.86132 1.125-0.86132 2.5s0.17253 2.5 0.38342 2.5c0.21088 0 0.59848-1.125 0.86132-2.5zm206.34-2.2525c-1.0894-1.0894-1.5028 0.33508-0.81164 2.7962l0.68983 2.4563 0.35131-2.3359c0.19322-1.2847 0.0899-2.5972-0.2295-2.9167zm-229.75-3.0994c-0.54905-1.4033-62.242-79.073-62.557-78.757-0.15995 0.15996 1.8024 9.206 4.3608 20.102l4.6516 19.811-4.278 18.381c-2.3529 10.109-4.0583 18.601-3.7897 18.869 0.26857 0.26858 8.0427-0.007 17.276-0.61314 16.414-1.077 16.834-1.0552 18.868 0.97876 1.8731 1.8731 3.2611 2.0802 13.941 2.0802 6.5236 0 11.711-0.38338 11.528-0.85197zm18.167-6.9972c0-4.317 0.24995-11.18 0.55545-15.25l0.55545-7.4009-16.454-19.815c-9.0498-10.898-16.665-20.026-16.922-20.283-0.50731-0.5073-9.6319-3.032-33.562-9.2863l-15.327-4.0059 2.8065 3.6956c2.3722 3.1237 40.46 51.298 58.067 73.446l5.3663 6.75h7.4574 7.4574v-7.8491zm8.788-1.4834 2.288-8.6792-2.788-3.4941c-1.5334-1.9218-2.8649-3.1566-2.9588-2.7442-0.094 0.41246-0.37287 6.0554-0.61978 12.54-0.54395 14.286 0.74178 15.035 4.0786 2.3776zm11.106 1.7831c-3.4345-4.1521-6.5161-7.7171-6.8479-7.9222-0.33181-0.20508-1.5491 3.1921-2.7051 7.5494l-2.1018 7.9222h8.9497 8.9497l-6.2446-7.5494zm86.47 2.9098c0.95638-6.9776 0.76439-37.36-0.23608-37.36-0.77414 0-73.007 40.574-74.045 41.591-0.22916 0.22479 16.247 0.40871 36.614 0.40871h37.031l0.63593-4.6396zm75.553 4.2527c-0.22916-0.21278-16.617-9.4926-36.417-20.622s-36.338-20.432-36.75-20.672c-0.41251-0.24052-0.75 9.0392-0.75 20.622v21.059h37.167c20.442 0 36.979-0.17409 36.75-0.38687zm12.498-8.7045c4.1721-5.0003 7.5762-9.8378 7.5647-10.75-0.0115-0.91224-3.5801-14.934-7.9302-31.159l-7.9093-29.5-0.0698 40.25c-0.0384 22.138 0.11667 40.25 0.3446 40.25 0.22792 0 3.8279-4.0911 8-9.0914zm12.598 8.3414c0.0323-1.8892-3.4441-15.25-3.968-15.25-0.68099 0-13.045 14.655-13.045 15.463 0 0.29554 3.825 0.53734 8.5 0.53734s8.5058-0.3375 8.5128-0.75zm4.3648-12c-0.35975-7.0125-0.721-12.842-0.80278-12.954-0.0818-0.11199-1.4312 1.4036-2.9986 3.368l-2.8499 3.5716 2.3554 9.382c1.4588 5.8108 2.8492 9.382 3.6527 9.382 1.0294 0 1.1622-2.6328 0.64319-12.75zm44.67-19.937c13.999-17.978 28.766-36.946 32.816-42.151 4.0501-5.205 6.7501-9.2379 6-8.962-0.75009 0.27586-11.489 3.0978-23.864 6.271l-22.5 5.7694-16.5 20.017-16.5 20.017 0.37037 15.113c0.2037 8.3121 0.56777 15.45 0.80902 15.863 0.24126 0.4125 3.4711 0.75 7.1774 0.75h6.7387l25.452-32.687zm3.5349 30.609c2.1591-2.0284 2.609-2.0516 18.96-0.97876 9.2116 0.60439 16.973 0.87381 17.248 0.59871 0.27511-0.27511-0.67878-5.5722-2.1197-11.771-1.441-6.1991-3.3372-14.51-4.214-18.469l-1.5941-7.1982 3.6447-18.302c2.0046-10.066 3.9019-19.427 4.2164-20.802 0.39062-1.708-1.1535-0.28232-4.8741 4.5-10.181 13.086-56.101 71.994-57.1 73.25-0.7847 0.98617 1.6032 1.25 11.313 1.25 11.085 0 12.528-0.20644 14.52-2.0776zm-231.81-52.956-0.27256-18.034-7 26.784c-3.85 14.731-7 27.086-7 27.456 0 0.36955 3.15 4.5197 7 9.2226l7 8.5507 0.27256-17.973c0.1499-9.8849 0.1499-26.088 0-36.007zm39.359 32.908c20.553-11.62 37.499-21.237 37.657-21.372 0.15898-0.13531-4.116-2.7208-9.5-5.7456-46.024-25.857-64.445-35.933-64.885-35.493-0.42446 0.42445-1.1928 83.736-0.77226 83.737 0.0724 0.00014 16.947-9.5066 37.5-21.126zm116.74-63.665c-0.3431-0.1602-14.743 7.672-32 17.405-43.047 24.278-42.182 23.765-41.913 24.886 0.13177 0.55 16.731 10.241 36.888 21.536l36.649 20.536 0.5-42.036c0.27499-23.12 0.21928-42.167-0.12383-42.327zm117.89 22.609-0.27008-21.317-4.2854 21.5c-2.357 11.825-4.2718 22.4-4.2553 23.5 0.0166 1.1 1.945 10.257 4.2854 20.35l4.2553 18.35 0.27008-20.532c0.14856-11.293 0.14856-30.125 0-41.85zm-281.73 11.277c4.4517-16.661 7.8798-30.507 7.618-30.769-0.26184-0.26184-0.80559 0.57034-1.2084 1.8493-0.40274 1.279-5.0004 12.45-10.217 24.825-12.291 29.157-11.811 27.273-8.0401 31.567 1.6901 1.9249 3.226 3.3468 3.4132 3.1596 0.18714-0.18713 3.9826-13.972 8.4343-30.633zm189.52 24.312c1.3533-1.9326 0.65404-4.0148-9.068-27-10.098-23.873-14.118-32.852-13.081-29.213 0.26538 0.9309 3.4606 13.081 7.1006 27 3.6399 13.919 7.3178 27.745 8.173 30.725l1.555 5.4172 1.9268-2.4172c1.0598-1.3295 2.5868-3.3596 3.3933-4.5113zm-196.21-33.406 10.317-24.5-20.581-0.5-20.581-0.5-6.7755 6.4985c-3.7265 3.5742-6.6515 7.0195-6.5 7.6564 0.15152 0.63686 7.4467 9.825 16.212 20.418 13.454 16.26 16.065 18.962 16.764 17.344 0.45538-1.0541 5.4707-12.942 11.145-26.417zm218.35 6.885c8.1436-9.8802 14.871-18.509 14.949-19.174 0.0786-0.66579-2.8464-3.9105-6.5-7.2105l-6.643-6-20.589 0.5-20.589 0.5 10.949 25.781c8.7964 20.713 11.211 25.564 12.282 24.674 0.73338-0.60867 7.9964-9.1904 16.14-19.071zm-124.69-11.385v-20.5h-37.215-37.215l36.465 20.473c20.056 11.26 36.803 20.485 37.215 20.5 0.4125 0.0149 0.75-9.1979 0.75-20.473zm32.802 2.3338c29.126-16.431 38.364-21.73 39.115-22.44 0.22917-0.21664-15.633-0.39389-35.25-0.39389h-35.667v20.107c0 17.762 0.18101 20.038 1.5521 19.511 0.85365-0.32757 14.466-7.8807 30.25-16.785zm-169.88-17.56c1.69-2.0503 3.0728-4.0753 3.0728-4.5 0-0.42469-9.5625-0.73699-21.25-0.694l-21.25 0.0782 15.5 4.3284c8.525 2.3806 16.705 4.3704 18.177 4.4218 1.9383 0.0677 3.5253-0.93543 5.75-3.6344zm297.88-0.87053 15.311-3.9016-10.061-0.28498c-5.5335-0.15674-14.589-0.15674-20.124 0l-10.063 0.28498 3.6908 4.308c2.03 2.3694 4.1959 4.1252 4.8132 3.9016 0.61733-0.22352 8.0124-2.1621 16.433-4.308zm-279.89-25.402 12.676-18.5 12.333-30c6.7831-16.5 19.423-47.325 28.089-68.5 32.183-78.637 55.206-134.56 56.199-136.5 2.3826-4.662-2.0734 1.7013-22.409 32-11.812 17.6-32.058 47.75-44.991 67s-43.825 65.238-68.65 102.19c-24.825 36.957-45.257 67.742-45.405 68.411-0.50549 2.2913 4.7635 2.7101 32.106 2.552l27.375-0.15822 12.676-18.5zm43.388 3.25c3.6288-8.6625 8.1952-21.825 10.148-29.25 1.9524-7.425 7.3522-27.883 12-45.462 4.6474-17.579 8.3575-32.048 8.2447-32.155-0.1128-0.10613-5.1551 7.0596-11.205 15.924-6.05 8.8642-17.706 25.809-25.903 37.655-14.246 20.587-15.229 22.332-22.288 39.538-6.8148 16.61-7.8239 18.444-13.065 23.75l-5.6803 5.75h20.576 20.576l6.5978-15.75zm75.424-76.25 0.23694-91.5-12.856 30.5c-58.46 138.69-62.093 147.57-62.112 151.76-0.004 0.99841 7.7787 1.2074 37.244 1l37.25-0.26217 0.23694-91.5zm76.703 88.25c-0.70223-4.0475-4.6288-14.162-14.655-37.75-3.5067-8.25-18.28-43.093-32.83-77.429l-26.455-62.429-0.61262 89.929c-0.33694 49.461-0.42288 90.267-0.19098 90.679 0.2319 0.4125 17.29 0.75 37.908 0.75h37.486l-0.65061-3.75zm43.377-2c-5.147-5.2659-6.2421-7.2654-13.007-23.75l-7.3867-18-26.337-38c-14.486-20.9-26.076-37.1-25.757-36 0.3193 1.1 3.806 14.375 7.7481 29.5s9.0978 34.882 11.457 43.905c2.816 10.77 6.6054 21.848 11.031 32.25l6.742 15.845h20.565 20.565l-5.6202-5.75zm71.886 4.47c0.82959-0.53786-26.607-42.442-88.389-135-77.638-116.31-93.844-140.37-91.069-135.22 0.49047 0.91105 16.743 40.361 39.962 97 4.9604 12.1 19.481 47.425 32.268 78.5s23.424 56.96 23.637 57.523c0.21304 0.5628 6.2374 9.4741 13.387 19.803l13 18.78 28-0.30281c15.4-0.16654 28.541-0.65379 29.203-1.0828zm-304.94-19.4c3.722-9.0422 3.6876-9.0117-6.4148 5.6733-10.546 15.33-10.595 15.457-3.1652 8.218 5.1638-5.031 7.0715-7.7972 9.58-13.891zm234.82 5.0952c-5.2645-7.5723-9.5719-13.54-9.5719-13.262 0 0.27835 1.5188 3.9988 3.375 8.2677 2.4704 5.6812 4.9344 9.3374 9.1928 13.641 3.1998 3.2335 5.9884 5.7085 6.1968 5.5 0.20849-0.20849-3.9283-6.5746-9.1928-14.147zm-67.341-72.027-10.812-40.895-16.339-23.5c-15.992-23.001-19.446-27.684-17.221-23.352 0.60674 1.1816 10.508 24.357 22.003 51.5 31.363 74.059 32.139 75.918 32.139 77.094 0 0.59985 0.23469 0.85594 0.52156 0.56908 0.28685-0.28686-4.344-18.924-10.291-41.417zm-111.43 28.105c7.7924-18.807 16.732-40.071 33.213-79 8.3826-19.8 15.474-36.675 15.758-37.5 0.28416-0.825-7.1209 9.608-16.456 23.184l-16.972 24.684-8.7664 33.316c-4.8215 18.324-9.6232 36.289-10.67 39.923-3.4802 12.079-2.5769 11.01 3.8939-4.6078zm-10.791-33.475 24.325-35.475 3.7866-14.025c7.787-28.842 32.882-123.86 32.864-124.43-0.0103-0.32752-9.6227 22.805-21.361 51.405s-27.073 65.95-34.077 83c-7.0043 17.05-16.031 39.1-20.06 49-4.0286 9.9-8.289 20.25-9.4676 23s-1.736 4.55-1.2385 4c0.49744-0.55 11.851-16.964 25.229-36.475zm151.59 6.9373c-6.2206-15.104-25.415-61.76-42.654-103.68-17.239-41.919-31.44-76.119-31.557-76-0.11696 0.11907 6.0477 23.841 13.699 52.716 7.6515 28.875 15.774 59.64 18.049 68.368l4.1371 15.868 24.511 35.402c13.481 19.471 24.649 35.264 24.818 35.095 0.1688-0.16878-4.7827-12.665-11.003-27.769zm-104.18-75.85c9.2181-13.413 17.623-26.398 18.676-28.857 1.8067-4.2149 1.9013-7.0144 1.6559-49.018l-0.26022-44.547-6.8848 26.404c-3.7866 14.522-12.673 48.229-19.748 74.904-7.0745 26.675-12.864 48.713-12.865 48.973-0.001 0.25987 0.59776-0.41513 1.3314-1.5 0.7336-1.0849 8.8759-12.946 18.094-26.359zm52.497-10.121c-5.4578-20.621-14.311-54.143-19.674-74.493l-9.7506-37-0.26058 44.495c-0.22677 38.722-0.0546 45.01 1.3271 48.463 1.3078 3.2684 37.546 56.699 38.107 56.186 0.0957-0.0874-4.2915-17.031-9.7494-37.652z"/>
 </g>
</svg>
