<?xml version="1.0" encoding="UTF-8" standalone="no"?>
<!-- Created with Inkscape (http://www.inkscape.org/) -->
<svg id="svg3336" xmlns:rdf="http://www.w3.org/1999/02/22-rdf-syntax-ns#" xmlns="http://www.w3.org/2000/svg" height="80" viewBox="0 0 59.312351 80.000038" width="59.312" version="1.1" xmlns:cc="http://creativecommons.org/ns#" xmlns:dc="http://purl.org/dc/elements/1.1/">
 <metadata id="metadata3342">
  <rdf:RDF>
   <cc:Work rdf:about="">
    <dc:format>image/svg+xml</dc:format>
    <dc:type rdf:resource="http://purl.org/dc/dcmitype/StillImage"/>
    <dc:title/>
   </cc:Work>
  </rdf:RDF>
 </metadata>
 <path id="path3346" fill="#db0000" d="m26.109 76.44c-1.9002-1.9586-5.6235-5.8112-8.2738-8.5615-2.6502-2.7503-5.4864-5.6888-6.3031-6.5302-0.81672-0.84143-3.0398-3.1445-4.9404-5.1192s-4.1613-4.3084-5.0227-5.1875l-1.569-1.598v-45.08l0.559-0.0704c0.30744-0.0387 2.4125-0.34163 4.6779-0.67312s4.6485-0.67672 5.2958-0.76717c0.64726-0.0904 3.0039-0.43081 5.2369-0.75637s5.9136-0.86097 8.179-1.1898c4.2939-0.62327 5.0727-0.74509 5.6318-0.88082 0.18488-0.0449 0.37023-0.0322 0.41189 0.0283 0.0417 0.0604 0.55236 0.17184 1.1349 0.24759 0.58253 0.0757 3.2569 0.4578 5.943 0.84899 2.6861 0.39121 6.7109 0.97577 8.9439 1.2991 2.233 0.32327 5.8871 0.85445 8.1202 1.1804 2.233 0.32593 4.3117 0.62428 4.6191 0.66301l0.559 0.0704v45.08l-1.5679 1.5977c-0.86262 0.87792-3.1492 3.2386-5.0827 5.2451-1.9327 2.0065-4.1558 4.3102-4.9401 5.1192-0.78434 0.80907-3.6211 3.748-6.3039 6.5311-8.3849 8.698-11.665 12.063-11.761 12.063-0.0509 0-1.6473-1.6025-3.5477-3.5611z"/>
 <g id="layer1" transform="translate(-123 -633.99)" display="none">
  <path id="path4686" fill="#fff" d="m343.83 573.03c-11.21-1.3267-32.808-6.2017-44.372-10.016-40.957-13.508-77.402-36.641-111.87-71.012-20.443-20.383-27.346-29.335-9.0535-11.741 44.202 42.515 93.725 68.359 139.83 72.968 22.477 2.2472 40.925-2.0611 50.742-11.85 2.9479-2.9394 5.3598-6.0635 5.3598-6.9424 0-0.87888 0.45942-1.598 1.0209-1.598 0.5615 0 1.0209 0.62444 1.0209 1.3876 0 2.6876 8.0253 10.463 13.634 13.209 9.766 4.7819 17.117 6.1705 32.307 6.1028 40.754-0.18152 89.751-21.46 133.23-57.859 3.369-2.8204 11.607-10.43 18.306-16.909 7.6184-7.369 10.888-10.061 8.7293-7.187-6.2152 8.2749-34.977 36.046-46.957 45.34-36.337 28.189-71.479 45.025-111.27 53.305-11.933 2.4836-14.85 2.6745-44.921 2.9399-17.687 0.15615-33.767 0.0936-35.732-0.13898zm-0.31837-43.839c-49.163-10.931-90.685-31.475-120.85-59.794-5.6832-5.3355-10.858-9.0811-16.179-11.711-7.1327-3.5252-8.557-3.865-16.146-3.8524-4.5941 0.007-9.3528 0.57266-10.621 1.261-2.8533 1.5492-2.8497 1.4066 0.18381-7.4258 4.7545-13.843 5.9695-22.859 5.428-40.277-0.53306-17.146-2.9836-29.28-8.375-41.471l-2.5608-5.7903 4.321 2.5143c2.3766 1.3829 7.7666 3.8162 11.978 5.4075 7.0182 2.6518 8.8066 2.8944 21.439 2.9078 12.757 0.0136 14.276-0.19393 20.418-2.7891 13.863-5.8572 26.572-17.926 36.238-34.411 5.682-9.6909 7.8721-14.645 18.954-42.879 4.959-12.634 18.712-47.549 30.562-77.59s29.447-74.717 39.105-99.28c9.6578-24.563 17.789-44.662 18.07-44.665 0.28075-0.002 8.412 20.095 18.069 44.661 9.6574 24.566 27.255 69.243 39.106 99.284s25.682 65.186 30.735 78.101c13.608 34.776 20.293 47.57 31.19 59.69 5.9825 6.654 15.779 13.653 24.025 17.165 5.9355 2.5278 7.5187 2.7408 20.222 2.7211 12.624-0.0196 14.426-0.26466 21.439-2.9146 4.2113-1.5912 9.5669-4.0044 11.901-5.3626l4.2444-2.4694-2.847 6.9958c-5.432 13.348-7.3334 22.988-7.9141 40.123-0.58902 17.38 0.61889 26.391 5.4065 40.33 1.3645 3.9728 2.4809 7.4659 2.4809 7.7626 0 0.29667-2.4119-0.10056-5.3598-0.8828-12.454-3.3046-25.876 1.6989-39.917 14.881-30.316 28.461-72.515 49.236-121.54 59.835-6.6791 1.4441-12.588 2.4776-13.13 2.2967-0.54258-0.18087 3.5439-1.6034 9.0811-3.1613 46.297-13.025 76.352-37.439 82.684-67.163 1.8469-8.6698 1.4077-20.611-1.1164-30.352-0.88622-3.42-13.264-36.205-27.506-72.856s-31.857-82.028-39.144-100.84c-36.705-94.748-41.596-107.2-42.114-107.2-0.30784 0-8.0813 19.41-17.274 43.134-9.1931 23.724-33.183 85.552-53.312 137.4-20.128 51.844-37.376 97.097-38.327 100.56-2.6792 9.7547-2.3911 27.902 0.57811 36.415 8.758 25.11 34.163 45.497 72.294 58.018 6.6275 2.1761 13.658 4.437 15.623 5.0243 6.5002 1.9425-0.32833 1.1437-11.549-1.351zm22.834-16.42c1.0928-3.1762 1.9869-6.1202 1.9869-6.5423 0-0.42204-2.0666-2.0729-4.5923-3.6686-2.5258-1.5957-4.5932-3.2239-4.5942-3.6182-0.00098-0.39435 2.8334-0.85376 6.2987-1.0209l6.3005-0.30395 1.4871-5.3598c0.81792-2.9479 1.8289-5.3598 2.2466-5.3598 0.41768 0 1.4286 2.4119 2.2466 5.3598l1.4871 5.3598 6.3006 0.30395c3.4653 0.16717 6.2997 0.62658 6.2987 1.0209-0.00098 0.39433-2.0684 2.0226-4.5942 3.6182-2.5258 1.5957-4.5923 3.2466-4.5923 3.6686 0 0.42205 0.89408 3.3661 1.9868 6.5423 1.0928 3.1762 1.7144 5.7749 1.3813 5.7749-0.33305 0-2.5678-1.608-4.9662-3.5732-2.3984-1.9653-4.8952-3.5732-5.5484-3.5732-0.65326 0-3.15 1.608-5.5484 3.5732-2.3984 1.9653-4.6332 3.5732-4.9662 3.5732-0.33305 0 0.28853-2.5987 1.3813-5.7749zm-33.745-6.2027c0-0.54435 0.52878-2.5066 1.1751-4.3606 1.1137-3.1947 0.99366-3.5213-2.2971-6.2504l-3.4722-2.8796 4.3642-0.0275c3.8204-0.0241 4.492-0.37733 5.3901-2.835 0.56427-1.5442 1.2955-3.4967 1.625-4.3389 0.39002-0.99708 1.1215-0.0176 2.0966 2.8075 1.4694 4.2572 1.5873 4.3399 6.2619 4.3925 4.3852 0.0493 4.6018 0.16762 2.7225 1.4869-6.1159 4.2934-5.8308 3.7169-4.1684 8.4287 0.83904 2.3781 1.2855 4.3238 0.99223 4.3238-0.29331 0-2.0902-1.1875-3.993-2.6389l-3.4597-2.6389-3.6186 2.76c-1.9902 1.518-3.6186 2.3147-3.6186 1.7703zm71.465 0.40122c0-0.22991 0.63503-2.2179 1.4112-4.4178l1.4112-3.9998-3.7083-2.5094-3.7083-2.5094 4.7028-0.30518c4.5521-0.2954 4.7449-0.44254 6.0178-4.5942l1.3151-4.289 1.3378 3.0628c0.73581 1.6845 1.3586 3.6119 1.3839 4.283 0.0272 0.71995 2.0096 1.3478 4.8354 1.5314l4.7893 0.31116-3.6538 2.4935-3.6538 2.4935 1.4277 4.0465c0.78522 2.2256 1.2508 4.2234 1.0345 4.4397-0.21624 0.21624-1.7806-0.77426-3.4763-2.2011-3.5842-3.0159-4.6073-3.1767-6.4078-1.0071-1.3326 1.6056-5.0584 3.9415-5.0584 3.1713zm-90.862-31.43c-0.00001-0.35094 1.2756-0.89319 2.8346-1.205s4.0858-1.5511 5.6151-2.754l2.7804-2.1871v-45.199c0-50.716 0.576-46.986-7.7246-50.026-3.5717-1.3082 2.9296-1.4709 58.771-1.4709s62.342 0.16273 58.771 1.4709c-8.3006 3.0402-7.7246-0.69003-7.7246 50.026v45.199l2.7804 2.1871c1.5292 1.2029 4.056 2.4422 5.6151 2.754 1.5591 0.31181 2.8346 0.85406 2.8347 1.205 0.00001 0.35094-28.024 0.63808-62.276 0.63808s-62.276-0.28714-62.276-0.63808zm49.373-3.4469 2.6936-1.7649v-92.696l-4.4608-2.1672c-5.3799-2.6138-10.31-2.0424-14.302 1.6575l-2.6766 2.4806v44.016c0 29.533 0.36236 44.693 1.1013 46.073 2.5666 4.7957 12.025 6.0827 17.644 2.4008zm41.4-0.28906 2.6407-1.9713 0.26588-45.102 0.26586-45.102-2.4489-2.4489c-3.7036-3.7036-9.1432-4.3425-14.561-1.7102l-4.4711 2.1722 0.26554 46.594 0.26553 46.594 3.5732 1.9673c4.2894 2.3616 10.269 1.9428 14.205-0.99482z"/>
 </g>
 <g id="layer2" transform="matrix(.11768 0 0 .11768 -14.476 -4.0251)">
  <path id="path5260" fill="#fff" d="m346.53 573.2c-32.077-4.1626-56.072-11.49-84.051-25.668-28.328-14.354-52.553-32.499-78.577-58.855-17.333-17.554-20.83-22.363-5.8635-8.0642 39.244 37.495 82.503 62.009 124.66 70.646 13.662 2.7989 35.433 3.0548 44.862 0.52714 13.709-3.6751 24.385-11.829 25.873-19.761 0.71366-3.8042 2.4883-4.7874 2.4883-1.3787 0 8.445 13.02 18.377 28.362 21.636 9.6044 2.0403 30.109 1.5494 42.797-1.0246 42.228-8.5669 84.288-32.569 125.82-71.799 10.293-9.7234 10.515-9.8714 4.5038-3.0076-9.4056 10.74-29.431 29.832-41.107 39.19-31.426 25.187-69.102 44.15-104.17 52.43-18.983 4.4822-33.254 5.8549-59.095 5.6844-12.875-0.085-24.802-0.3352-26.503-0.55602zm52.596-41.198c37.794-10.795 57.163-20.543 73.227-36.855 13.282-13.487 18.406-25.531 18.263-42.931-0.1021-12.369-1.8487-18.843-11.829-43.83-7.0937-17.762-35.35-89.664-64.238-163.46-6.1059-15.598-16.642-42.515-23.414-59.816-6.772-17.3-13.009-33.427-13.86-35.838-0.85103-2.4107-1.9344-4.383-2.4076-4.383-0.47315 0-1.7764 2.4364-2.8962 5.4143-2.2851 6.0769-40.002 103.39-65.656 169.39-33.549 86.32-41.544 107.36-42.917 112.93-2.2561 9.1517-1.8357 25.993 0.86243 34.549 8.8068 27.928 35.506 48.358 82.784 63.345 6.2206 1.972 6.3692 2.0853 2.0626 1.574-7.5818-0.90023-25.357-5.53-40-10.418-35.567-11.874-66.13-29.482-90.698-52.255-4.669-4.3278-11.398-9.375-14.954-11.216-5.9426-3.0768-7.2562-3.3495-16.262-3.3762-5.3886-0.016-10.792 0.33437-12.007 0.77863-2.1663 0.79197-2.152 0.64105 0.73195-7.7348 7.1966-20.901 7.9718-44.43 2.2033-66.875-1.6855-6.5583-4.0467-13.849-5.247-16.202-1.2003-2.3528-2.1824-4.5155-2.1824-4.806 0-0.29054 3.2491 1.1023 7.2202 3.0953 18.846 9.458 39.538 10.148 55.964 1.866 12.833-6.4704 25.127-19.491 34.577-36.622 4.0834-7.4024 6.3748-12.926 25.829-62.257 69.479-176.19 80-202.65 80.555-202.64 0.31219 0.0039 10.272 23.788 22.133 52.854 44.425 108.87 78.172 191.05 81.109 197.53 7.3304 16.167 22.151 33.531 35.237 41.285 3.179 1.8836 9.1839 4.6111 13.344 6.0611 13.022 4.5385 36.308 4.3909 49.645-0.31465 2.2735-0.80212 4.2844-1.3076 4.4687-1.1233 0.1843 0.18433-1.0712 3.6823-2.7901 7.7734-4.8063 11.439-7.1958 23.612-7.8265 39.869-0.47337 12.201-0.22101 16.079 1.6286 25.025 1.2037 5.8226 3.2864 13.611 4.6281 17.307l2.4393 6.7204-2.2043-0.80611c-1.2123-0.44336-6.4072-0.80611-11.544-0.80611-8.6911 0-9.8754 0.26484-17.05 3.8126-5.1197 2.5318-10.817 6.658-16.958 12.283-17.339 15.879-32.417 25.896-56.689 37.657-18.14 8.7908-43.528 17.486-64.124 21.964-15.476 3.3641-19.691 3.927-11.161 1.4908zm-27.411-28.994c-0.0487-1.0782-0.29083-1.2858-0.60159-0.51565-0.9979 2.4731-2.4109 1.2639-2.4102-2.0626 0.00061-2.8355 0.39243-3.3743 2.5441-3.4983 2.8333-0.16332 4.2119 2.4017 3.1274 5.8188-0.80694 2.5425-2.549 2.7113-2.6597 0.25783zm9.5494 0.25783c-0.18221-1.7256-0.38113-1.8098-1.2175-0.51566-0.83197 1.2874-1.016 1.2008-1.0969-0.51565-0.0535-1.1344-0.3313-1.4825-0.61739-0.77348-1.2386 3.0694-2.4109 0.84224-2.4109-4.5802 0-5.1964-0.16053-5.6497-1.4002-3.9545-1.361 1.8612-1.4322 1.8595-2.5469-0.0607-1.1189-1.9275-1.1498-1.9254-1.2711 0.087-0.0806 1.3376-0.46787 0.87164-1.1017-1.3259-1.0879-3.772-2.9619-3.5472-2.9619 0.35545 0 3.0408-2.5602 3.3791-4.08 0.5392-1.2525-2.3404-0.35502-7.8252 1.5375-9.3958 1.4044-1.1656 0.98601-2.4084-2.7679-8.2208-2.6477-4.0996-3.2174-10.765-1.3006-15.215 0.91558-2.1255 3.0115-7.7858 4.6576-12.578 1.6461-4.7927 4.1733-9.946 5.6161-11.452 1.4427-1.5059 2.9744-4.0516 3.4038-5.6571 0.42938-1.6055 1.2744-3.0837 1.8779-3.2849 1.078-0.35932 4.1168 6.8533 5.1688 12.268 0.2944 1.5153 1.7642 3.8358 3.2662 5.1565l2.7309 2.4015-2.3204-2.6447c-1.2762-1.4546-2.3204-3.887-2.3204-5.4054 0-2.5563 0.42813-2.2841 5.7824 3.676 9.3095 10.363 10.3 11.078 15.356 11.078 4.6622 0 6.9046-1.3703 4.0407-2.4693-0.89263-0.34254-2.7031-0.35171-4.0232-0.0204-2.766 0.69423-7.649-1.4539-5.8426-2.5703 0.70159-0.4336-0.85211-2.2104-3.965-4.5344-5.0727-3.7871-9.0345-8.5327-7.993-9.5743 0.29742-0.29741 3.5954 2.5138 7.3287 6.2472 5.6495 5.6495 7.2066 6.6829 9.2838 6.1616 1.3727-0.34452 2.8059-0.12472 3.1849 0.48845 0.37896 0.61318 1.4592 1.1149 2.4005 1.1149 0.94132 0 4.1625 2.4206 7.1582 5.3791s5.4468 4.874 5.4468 4.2566-2.1237-3.0801-4.7192-5.4726c-2.5956-2.3925-4.568-4.4613-4.383-4.5972 0.18492-0.13596 1.9605-0.71232 3.9458-1.2808 1.9853-0.56849 3.4935-1.5754 3.3517-2.2376-0.33416-1.5604 1.4618-1.5619 2.4259-0.002 0.43521 0.70417-0.50061 2.197-2.2596 3.6044-1.6513 1.3214-2.5032 2.4048-1.8931 2.4076 0.61014 0.003 2.2178-1.1748 3.5725-2.6168 2.0817-2.2159 2.2692-2.9324 1.2111-4.6269-1.4456-2.3147-1.699-19.325-0.32032-21.502 2.1145-3.3383 3.1934 0.29846 3.1934 10.764 0 6.891 0.39322 10.768 1.0922 10.768 0.6007 0 0.8354 0.41546 0.52157 0.92324-0.31382 0.50778 0.12287 1.1893 0.97044 1.5146 1.069 0.41023 1.541-0.0794 1.541-1.5987 0-2.1153 0.0695-2.1272 2.0363-0.34727 3.4188 3.094 3.4016 5.24-0.0962 11.961-3.0147 5.7925-3.4445 6.207-4.6817 4.515-0.74925-1.0247-1.6813-1.544-2.0711-1.1542-0.38986 0.38988 0.13101 1.323 1.1575 2.0736 1.7995 1.3158 1.7985 1.444-0.028 3.577-1.3862 1.619-2.1061 1.8725-2.6842 0.94509-0.50337-0.80751-1.0338-0.0573-1.462 2.0677-0.36964 1.8342-1.0594 3.0956-1.5328 2.803-0.47338-0.29256-0.59927-1.2132-0.27975-2.0459 0.31953-0.83265 0.0672-1.5139-0.56069-1.5139-0.62791 0-1.1564 1.0442-1.1744 2.3204-0.032 2.2624-0.0706 2.2704-1.547 0.31854-0.83279-1.101-1.5142-1.4491-1.5142-0.77348 0 0.67563-0.69613 1.2284-1.547 1.2284-0.85083 0-1.5506 0.34807-1.555 0.77348-0.004 0.42541-1.1414 1.299-2.5267 1.9412-2.4548 1.1382-2.5283 1.0467-2.9-3.6096-0.3065-3.8401-0.41778-3.418-0.56719 2.1516-0.13869 5.1694-0.52277 6.7996-1.5125 6.4198-1.0594-0.40654-1.1292 0.91922-0.34646 6.5825 1.0721 7.757-0.0507 13.789-1.4299 7.682-0.91853-4.0672-3.7331-8.5339-5.3774-8.5339-0.91765 0-0.91185 0.30194 0.0238 1.2376 0.68066 0.68066 1.2376 1.5592 1.2376 1.9523 0 1.3977-3.3784 1.9832-4.7716 0.82689-1.0981-0.91132-1.4163-0.81315-1.4163 0.437 0 0.8868 0.46409 1.8992 1.0313 2.2498 1.4519 0.89733 1.288 10.159-0.20626 11.654-1.559 1.559-2.9683 1.6005-2.6298 0.0773 0.14181-0.63812-0.32228-1.3729-1.0313-1.6329-0.72207-0.26475-1.321 0.35901-1.3616 1.418-0.0658 1.7157-0.15452 1.6998-0.95881-0.17189-0.81882-1.9055-0.89185-1.8702-0.95881 0.46409-0.0516 1.7988-0.39122 2.208-1.1789 1.4203-0.60854-0.60854-0.9566-2.6737-0.77347-4.5893 0.29813-3.1187 0.63895-3.4613 3.2597-3.2763 2.2502 0.15882 2.7866-0.15865 2.3204-1.3735-0.33348-0.86902-0.64818-3.0504-0.69934-4.8474l-0.093-3.2674-0.9951 3.4572c-0.77305 2.6858-1.4327 3.3427-2.9562 2.9443-1.7578-0.45968-1.9983 0.19773-2.3195 6.3402-0.19707 3.7692-0.45632 5.9249-0.5761 4.7905zm19.977-21.813c-0.52113-2.0763-0.94101-2.4571-1.5762-1.4294-0.49995 0.80893-0.37756 2.1827 0.28964 3.251 1.5552 2.4902 2.1554 1.6404 1.2865-1.8216zm-28.904 1.0756c2.326-1.524 2.5831-1.524 3.168 0 0.35007 0.91227 1.0509 1.6587 1.5575 1.6587 1.3787 0 1.0519-2.3186-0.64239-4.5577-1.429-1.8886-1.5893-1.8966-3.491-0.17563-1.592 1.4407-2.4257 1.5724-4.1416 0.65405-2.47-1.3219-2.6703-0.85365-0.86902 2.0307 1.537 2.4611 1.2908 2.4393 4.4186 0.38993zm13.897-1.9509c2.6655-2.8373 2.4498-3.0665-1.4798-1.5725-1.455 0.55318-2.6454 1.7134-2.6454 2.5783 0 2.2706 1.3584 1.9394 4.1252-1.0058zm10.636-3.3517c-0.35386-0.99263-1.0872-2.3789-1.6298-3.0805-0.5425-0.70166-0.7008-2.4135-0.35178-3.8042 0.80296-3.1992-0.96255-4.4666-1.8864-1.3541-1.6805 5.6617-1.7612 7.9736-0.25842 7.3969 0.8109-0.31118 1.7517 0.15704 2.0907 1.0405 0.85403 2.2256 2.831 2.0327 2.0356-0.19856zm-7.7811-9.9131c-0.60628-5.3789-7.0443-20.206-8.7851-20.233-0.70902-0.0108-1.2891-0.74982-1.2891-1.6422 0-2.5382-3.4398-1.2808-4.0956 1.4971l-0.57646 2.442-1.4478-2.7052c-1.4798-2.7651-3.1619-3.6031-3.1619-1.5753 0 0.62146-0.85993 2.3618-1.911 3.8674-2.7883 3.9942-5.9632 21.332-4.2782 23.362 1.4528 1.7504 5.7383 2.0811 6.7048 0.51727 1.0838-1.7536 2.5525-1.1353 1.8371 0.77348-0.5923 1.5805-0.46009 1.6289 1.0637 0.38938 0.95703-0.77848 1.74-2.0273 1.74-2.7752 0-0.74789 0.53136-1.6882 1.1808-2.0896 0.80797-0.49936 1.0246 0.0876 0.68602 1.8586-0.47954 2.5086-0.32896 2.5843 4.8828 2.455 4.3844-0.10872 5.2819 0.15581 4.8592 1.4323-0.28511 0.8611 0.29047 0.47957 1.2791-0.84783 1.2837-1.7236 1.6586-3.6461 1.3114-6.7262zm36.466-12.776c1.2828-1.6357 1.2463-1.6722-0.38938-0.38938-0.99263 0.77848-1.8048 1.5906-1.8048 1.8048 0 0.8488 0.8469 0.30249 2.1942-1.4154zm-33.16-4.88c0-0.26366-1.0442-1.0358-2.3204-1.7158-2.1041-1.1212-2.1885-1.0765-0.90503 0.47937 1.3178 1.5975 3.2255 2.3288 3.2255 1.2364zm-35.322 53.519c-1.5011-1.5264-0.83029-7.4194 0.92108-8.0914 2.1915-0.84096 3.023 0.019 1.6376 1.6938-0.59786 0.72274-1.2441 2.6348-1.4361 4.2491s-0.69715 2.5811-1.1226 2.1485zm4.6409-0.0944c-1.5842-0.63925-1.6698-3.8978-0.17575-6.6895 1.0612-1.9829 1.2062-1.9964 3.0939-0.28801 2.578 2.3331 2.7023 7.6931 0.17575 7.5791-0.99263-0.0448-2.3849-0.3155-3.0939-0.60159zm-12.194-6.8793c-0.36289-0.94573-1.2566-1.7195-1.9861-1.7195-1.6087 0-2.8486-2.8051-1.5851-3.586 0.49672-0.30698 1.5814 0.12015 2.4104 0.94917 0.82903 0.82903 1.7837 1.231 2.1215 0.89317 0.33778-0.33778 0.91875 0.1796 1.291 1.1497 0.37228 0.97014 0.16638 2.2744-0.45756 2.8983-0.82505 0.82505-1.3144 0.66551-1.7942-0.58496zm44.938-2.2846c0-2.937 0.34525-3.6483 1.547-3.1871 0.94231 0.36159 1.547 0.002 1.547-0.92097 0-0.83302 0.46409-1.5146 1.0313-1.5146s1.0313 1.829 1.0313 4.0644-0.46409 4.3512-1.0313 4.7017c-0.58492 0.36149-1.0313-0.50495-1.0313-2.0017 0-1.4515-0.51821-2.6391-1.1516-2.6391-0.64366 0-0.9138 0.9093-0.61247 2.0616 0.29651 1.1339 0.1186 2.3215-0.39537 2.6391-0.51397 0.31765-0.93449-1.1238-0.93449-3.2032zm-36.595-5.967c-0.64278-1.4847-1.0033-1.5956-1.6772-0.51565-0.62576 1.0028-1.3233 1.0859-2.5737 0.30685-0.94342-0.58782-1.6528-1.4-1.5763-1.8048 0.0764-0.40482 0.13901-2.3447 0.13901-4.3108v-3.5748l3.4717 2.0484c1.9094 1.1266 4.2299 1.7574 5.1565 1.4018 2.0599-0.79047 2.2094 0.96484 0.24908 2.9252-0.78965 0.78966-1.646 2.3311-1.903 3.4254-0.44603 1.8992-0.50451 1.9037-1.2861 0.0984zm-11.36-7.9061c0.35056-0.56722 0.84204-1.0313 1.0922-1.0313 0.25013 0 0.45479 0.46409 0.45479 1.0313s-0.49148 1.0313-1.0922 1.0313c-0.60069 0-0.80534-0.46409-0.45478-1.0313zm1.2772-2.1931c-2.3328-1.3055-2.3238-3.0663 0.0119-2.3291 1.3666 0.4313 1.2414 0.0703-0.51565-1.4868-2.9078-2.577-2.9334-3.24-0.0965-2.4981 1.5237 0.39847 1.9916 0.20572 1.4861-0.6122-0.40575-0.65656-1.6112-1.1938-2.6786-1.1938-1.0675 0-2.2324-0.47166-2.5886-1.0481-0.35628-0.57647-1.1958-0.69959-1.8656-0.27361-1.8137 1.1534-7.2982 1.0307-8.1362-0.18209-0.4838-0.70014-1.163-0.62472-2.011 0.22332-0.70428 0.70428-1.9998 1.2638-2.879 1.2434-1.0587-0.0246-0.55375-0.89348 1.4954-2.5731 1.7016-1.3948 2.5412-2.5384 1.8656-2.5412-0.67555-0.003-1.5151 0.45896-1.8656 1.0262-0.35056 0.56722-1.5382 1.0313-2.6391 1.0313-1.101 0-2.0017-0.46409-2.0017-1.0313s-0.69613-1.0313-1.547-1.0313c-1.9444 0-1.9924-1.4404-0.10024-3.0107 1.1097-0.92098 1.5484-0.89542 1.8834 0.10972 0.3277 0.98307 1.1611 0.83573 3.3369-0.58991l2.9002-1.9002 3.4689 3.7865c3.486 3.8052 4.2246 3.8819 7.8056 0.81054 1.5802-1.3553 2.0869-1.1873 4.8987 1.6245 2.4112 2.4112 3.1325 4.0485 3.1204 7.0829-0.0204 5.105-1.0013 6.6764-3.3479 5.3632zm-28.091-18.433c-0.35056-0.56721 0.31818-1.0313 1.4861-1.0313s2.1235 0.46409 2.1235 1.0313c0 0.56722-0.66874 1.0313-1.4861 1.0313-0.81734 0-1.7729-0.46409-2.1235-1.0313zm14.077-3.1004c-4.197-3.0403-6.2114-6.3737-2.4213-4.0068 1.4777 0.92285 2.9045 0.63697 6.9613-1.3949 2.8064-1.4056 8.2786-3.6006 12.16-4.8778 7.8096-2.5695 13.509-6.8764 14.541-10.989 0.37117-1.4789 0.92668-2.437 1.2345-2.1292 1.03 1.03-0.81086 4.9401-4.1027 8.7144-1.7968 2.0602-2.5186 3.4594-1.6077 3.1168 1.2444-0.4682 1.5906-0.0528 1.4002 1.6808-0.34255 3.1206-5.4174 12.986-6.6802 12.986-1.7169 0-1.1276-2.6683 1.279-5.7909 2.004-2.6003 2.0364-2.7828 0.25783-1.4483-1.1193 0.83979-3.2627 2.9282-4.7632 4.6409-2.5253 2.8825-2.9658 3.0249-5.9255 1.9161-1.8662-0.69914-3.4393-0.80648-3.7784-0.25783-1.0834 1.753-4.26 0.95087-8.5549-2.1603zm23.709-7.2709 2.4347-2.1208-2.5783 1.2805c-1.418 0.70427-4.2026 1.6053-6.1878 2.0022l-3.6096 0.72176 3.7531 0.1186c2.4421 0.0771 4.6036-0.62227 6.1878-2.0022zm-35.681 1.1581c-0.37388-0.60495-1.6966-1.114-2.9394-1.1313-2.1134-0.0293-2.1358-0.10328-0.34594-1.1435 1.4686-0.85347 2.2937-0.73197 3.5482 0.52246 0.89901 0.89901 1.3606 1.9085 1.0257 2.2434-0.33486 0.33485-0.91473 0.11385-1.2886-0.4911zm11.39-0.21136c0.51641-0.83556-0.30017-0.98161-2.8324-0.50656-3.1237 0.58601-3.8342 0.29381-5.8212-2.3938-1.2448-1.6837-2.2633-3.4728-2.2633-3.9758 0-0.50304-0.73869-2.3954-1.6415-4.2052-1.3148-2.6355-1.3882-3.5959-0.36869-4.8242 0.70006-0.84353 0.97468-1.8319 0.61023-2.1963-0.36443-0.36444-0.66261-0.0438-0.66261 0.71246 0 1.9582-1.3686 0.33788-1.7333-2.0522-0.216-1.4154 0.14646-1.8257 1.2414-1.4056 1.1028 0.42317 1.3636 0.11662 0.90885-1.0683-0.35073-0.91399-0.93609-1.6621-1.3008-1.6625-0.36472-0.00039-0.73007-1.1606-0.81187-2.5782-0.11456-1.9855 0.35923-2.5847 2.0626-2.6089 1.8946-0.0268 1.9704-0.17213 0.52881-1.0141-1.501-0.87674-1.3341-1.6496 1.547-7.1637 2.1325-4.0815 4.1928-6.5819 6.0656-7.3614 2.2716-0.94554 2.8361-1.849 2.8361-4.5387 0-1.847-0.6778-3.9207-1.5062-4.6082-0.82841-0.68751-1.8155-3.9839-2.1935-7.3253-0.40606-3.589-1.1042-5.8176-1.706-5.4457-0.60657 0.37488-0.73972 2.7658-0.32913 5.9099 1.1766 9.0095 1.1383 10.22-0.33862 10.728-0.91953 0.31597-1.1562 0.045-0.66082-0.75661 0.45645-0.73855-0.35209-2.422-1.9786-4.1198-2.5496-2.6612-2.7273-3.4272-2.4331-10.487 0.20616-4.9464 0.81899-8.0091 1.7483-8.7372 0.89107-0.69817 1.2533-2.3311 0.9601-4.3286-0.25892-1.7641-0.14372-3.0054 0.256-2.7583 0.39972 0.24704 0.94964-0.71672 1.222-2.1417 0.2724-1.425 0.0934-2.8392-0.39772-3.1428-1.4836-0.91695-1.0079-3.4154 1.0146-5.3289 5.1106-4.8351 6.581-5.6652 7.4912-4.2289 0.64977 1.0254 0.88679 0.81236 0.89842-0.80733 0.0181-2.523 4.1019-4.1513 5.3774-2.1441 0.50818 0.79966 0.80027 0.41395 0.81038-1.0701 0.0169-2.4908 1.5712-3.1513 2.4267-1.0313 0.33018 0.81827 0.54991 0.67387 0.60159-0.39537 0.0448-0.92647 0.98361-1.9204 2.0863-2.2088 1.5514-0.40571 2.0996 0.092 2.4237 2.2002 0.369 2.4002 0.43725 2.3255 0.57339-0.6273 0.15438-3.3488 1.583-4.4974 2.5654-2.0626 0.2861 0.70902 0.55681 0.24494 0.60159-1.0313 0.0908-2.587 2.144-3.2572 2.144-0.69981 0 1.4193 0.21848 1.4021 1.7587-0.13812 1.1462-1.1462 1.8952-1.3492 2.1507-0.5829 0.21558 0.64672 0.86829 0.88147 1.4505 0.52166 0.58219-0.35981 1.5011-0.0147 2.0421 0.76704 0.69738 1.0077 0.79364 0.74609 0.33085-0.89917-0.36227-1.2879-0.19653-2.3204 0.37248-2.3204 0.56384 0 1.2374 0.81216 1.4968 1.8048 0.33704 1.2897 0.54061 1.069 0.71329-0.77348 0.22981-2.4519 0.28025-2.4266 1.0289 0.51565 0.78645 3.0906 0.7874 3.091 0.90929 0.33188 0.11873-2.6876 0.28986-2.7596 6.3514-2.6704 3.4261 0.0503 6.4576 0.46086 6.7365 0.9122 0.27894 0.45134 1.1944 0.55692 2.0342 0.23463 0.83989-0.3223 2.1013-0.11342 2.803 0.46418 0.70181 0.57759 3.4861 1.3792 6.1874 1.7813 2.7012 0.40214 5.1828 1.1703 5.5145 1.7071 0.74963 1.2129 5.7253 3.3287 7.0668 3.005 0.54555-0.13163 1.4737 0.37353 2.0626 1.1226 0.58889 0.74906 2.695 2.1888 4.6803 3.1995 1.9852 1.0107 5.1606 3.1975 7.0563 4.8596 3.4185 2.9972 3.4332 3.0491 1.8003 6.3224-0.90555 1.8152-1.4904 3.4564-1.2998 3.6471 0.19068 0.19068 1.0041-0.92886 1.8076-2.4878 2.6661-5.1728 5.7328-5.3563 4.718-0.28225-0.50524 2.5262-0.27735 2.8067 2.2025 2.711 2.5391-0.098 2.9568 0.48436 5.0924 7.0992 1.2795 3.9633 2.0791 7.985 1.7769 8.9371-0.30218 0.95212-0.0439 2.0435 0.5739 2.4254 0.80018 0.49454 0.77593 1.1129-0.0844 2.1494-0.9237 1.113-0.92117 1.4551 0.0108 1.4551 0.67015 0 0.99382 0.36346 0.71926 0.8077-0.27455 0.44423-0.0258 3.0274 0.55286 5.7404 0.88333 4.1416 0.77811 5.2354-0.65602 6.8201-1.3279 1.4673-1.4071 1.9924-0.3559 2.3593 1.0131 0.3536 0.835 1.0713-0.71043 2.8625-1.1344 1.3148-1.4856 2.0533-0.78035 1.641 0.90897-0.53134 1.2307 0.0926 1.1052 2.1432-0.0974 1.591-0.37354 3.2728-0.61363 3.7373-0.24008 0.46455-0.59604 3.1518-0.79102 5.9716-0.42731 6.1796-1.29 9.169-2.646 9.169-1.1148 0-0.20323-6.5902 1.3196-9.5396 1.324-2.5643-0.70963-6.05-3.0238-5.1828-1.5193 0.56927-1.5901 0.42539-0.46941-0.95431 1.1024-1.3573 0.9135-2.1104-1.148-4.5761-3.4202-4.0908-3.9992-6.6056-2.2821-9.9128 0.91752-1.7672 1.0593-2.8361 0.37607-2.8361-0.67614 0-0.58877-0.61168 0.22795-1.5958 0.89703-1.0809 1.5495-1.2315 2.0221-0.46684 0.47258 0.76465 1.1251 0.61401 2.0221-0.46684 0.89701-1.0808 0.95083-1.5958 0.16678-1.5958-0.63666 0-1.1576-1.5969-1.1576-3.5487s-0.46409-3.8355-1.0313-4.1861c-0.56722-0.35056-1.0313-1.4792-1.0313-2.508 0-1.918-3.8743-11.415-4.6568-11.415-0.47622 0 0.21727 2.4467 1.6077 5.6722 1.3772 3.1948 3.0369 10.065 3.0433 12.598 0.003 1.2565-1.4459 3.9379-3.2201 5.9586-2.7983 3.1871-3.1517 4.227-2.6663 7.846 0.30776 2.2946 1.8466 6.0292 3.4196 8.299 2.3744 3.4262 2.6082 4.2864 1.3772 5.0654-2.1147 1.3381-3.155 1.193-4.4846-0.6254-1.4244-1.948-12.769-4.4182-17.262-3.7587-2.7062 0.39719-3.1578 0.18908-2.6215-1.2083 0.80422-2.0958 0.9428-2.109-3.9283 0.37446-2.2251 1.1344-5.0699 2.0626-6.3218 2.0626-1.4798 0-3.0407 1.2372-4.4618 3.5366-2.5665 4.1526-3.8589 4.7718-7.0107 3.3586-1.2786-0.57333-2.6709-0.67146-3.0939-0.21806-0.42301 0.45341-0.22753 1.0187 0.43441 1.2562 0.81138 0.29116 0.47534 1.5708-1.0313 3.9272-2.9228 4.5713-4.2732 5.0354-4.4022 1.5129-0.14965-4.0864-3.5834-10.187-6.6002-11.726-1.4172-0.72305-4.9656-2.5497-7.8853-4.0593-5.7819-2.9894-6.5515-3.2048-6.5515-1.8337 0 0.50106 0.92817 1.1537 2.0626 1.4504 1.1344 0.29667 2.0626 0.9846 2.0626 1.5288 0 0.54414-3.1091 0.12724-6.9091-0.92646-8.357-2.3173-12.372-1.5336-17.653 3.4463-2.4904 2.3482-3.3796 2.789-2.8984 1.4367 0.59631-1.6755 0.46653-1.7617-0.92003-0.61093-1.0422 0.86492-1.26 1.694-0.61457 2.3394 0.63733 0.63734 0.64488 1.9329 0.0208 3.5743-1.0773 2.8336-0.51639 7.5559 1.7554 14.778 1.8298 5.817 6.0078 9.1863 11.45 9.2341l3.9091 0.0343-2.4347 2.0283c-2.6341 2.1944-5.8906 2.7868-4.6962 0.85425zm40.648-25.676c0-1.7704-1.9579-1.055-3.1357 1.1456-1.0482 1.9585-0.9635 2.0432 0.99503 0.99502 1.1774-0.6301 2.1407-1.5934 2.1407-2.1407zm-3.891-8.3924c-0.63314-0.63313-0.90157-0.12851-0.74398 1.3987 0.34407 3.3346 0.66951 3.7294 1.2418 1.5062 0.271-1.0529 0.047-2.36-0.49777-2.9048zm4.5955 2.0475c-0.32922-0.8227-0.57359-0.57833-0.62308 0.62309-0.0448 1.0872 0.19897 1.6963 0.54166 1.3536 0.3427-0.34269 0.37933-1.2322 0.0814-1.9767zm0.25431-7.2195c0.0399-0.39016-0.85568-0.63947-1.9901-0.55402-2.331 0.17559-2.68 1.7804-0.79686 3.6636 1.0001 1.0001 1.4178 0.8811 1.9901-0.56721 0.39841-1.0081 0.75699-2.1522 0.79685-2.5424zm20.699-7.1471c0-0.56721-0.46409-0.74448-1.0313-0.39392s-1.0313 1.1015-1.0313 1.6687c0 0.56721 0.46409 0.74448 1.0313 0.39392 0.56722-0.35056 1.0313-1.1015 1.0313-1.6687zm-62.25-30.198c1.2137-1.1916 3.302-2.9317 4.6409-3.8668 4.9723-3.4731 0.93337-2.88-5.1777 0.76036-6.3771 3.7988-8.3129 6.7194-6.8979 10.407 0.54806 1.4283 1.0717 1.1265 2.9473-1.6985 1.2545-1.8894 3.2738-4.4103 4.4875-5.6019zm79.988-9.0763c-0.66176-0.66175-1.5455-0.86083-1.964-0.44239-0.41844 0.41845-0.0916 1.1744 0.72642 1.68 1.926 1.1904 2.7958 0.32064 1.2376-1.2376zm-82.195 0.20626c0.35057-0.56721 0.14591-1.0313-0.45478-1.0313s-1.0922 0.46409-1.0922 1.0313c0 0.56722 0.20465 1.0313 0.45478 1.0313 0.25014 0 0.74161-0.46409 1.0922-1.0313zm29.392-2.7845c0-2.0739-0.29812-2.4864-1.1682-1.6163-0.64253 0.64253-0.88915 1.8956-0.54802 2.7845 0.94408 2.4603 1.7163 1.9346 1.7163-1.1682zm46.409 0.24255c0-0.26366-1.0442-0.98538-2.3204-1.6038-2.2283-1.0798-2.2409-1.0608-0.31854 0.47936 2.1041 1.6858 2.639 1.9137 2.639 1.1245zm-66.903-4.4193c1.2828-1.6357 1.2463-1.6722-0.38938-0.38938-1.7179 1.3473-2.2642 2.1942-1.4154 2.1942 0.21415 0 1.0263-0.81215 1.8048-1.8048zm60.668-0.34616c-0.63313-1.183-1.4117-1.8904-1.7302-1.5719-0.31849 0.31848 0.008 1.2864 0.72548 2.1509 1.8541 2.234 2.3556 1.945 1.0047-0.57906zm-36.887-6.2254c4.4614-1.5403 7.152-1.8542 11.242-1.3116 3.9354 0.52204 5.1808 0.39562 4.6449-0.47153-0.40275-0.65165-2.0403-1.1848-3.639-1.1848-3.2034 0-6.0784-2.4429-4.2239-3.589 0.60401-0.3733 0.81403-1.1385 0.46672-1.7005-0.82043-1.3275-3.4508 2.2265-2.8352 3.8308 0.27776 0.72383-1.0938 1.498-3.4308 1.9364-2.1415 0.40175-5.1628 1.3868-6.7141 2.189-3.6141 1.8689-4.9855 1.8446-4.9855-0.0884 0-0.85082-0.46408-1.547-1.0313-1.547s-0.91528 0.55902-0.77348 1.2422c0.14181 0.68324-0.39963 1.2634-1.2032 1.2891-0.80355 0.0258-1.6711 0.67714-1.9279 1.4474-0.59892 1.7967 6.0002 0.86158 14.411-2.0421zm25.135 0.60876c-1.101-0.83279-2.466-1.5142-3.0332-1.5142-0.56721 0-0.13045 0.68137 0.97059 1.5142 1.101 0.83278 2.466 1.5142 3.0332 1.5142 0.56722 0 0.13045-0.68137-0.97059-1.5142zm-8.394 81.506c-0.4055-1.1344-1.3089-3.4935-2.0075-5.2425-1.2424-3.1101-1.2052-3.1799 1.6992-3.1799 2.9609 0 3.8756 1.0371 1.9593 2.2214-0.64459 0.39838-0.59238 1.2934 0.14427 2.4729 0.82868 1.3269 0.84229 2.4048 0.0483 3.8196-1.0809 1.9259-1.1231 1.9238-1.8435-0.0916zm-62.311-16.442c0-1.0166 4.4118-7.8509 4.8106-7.4521 0.23635 0.23635-0.56315 2.1125-1.7767 4.1692-2.0036 3.3959-3.034 4.5108-3.034 3.2828zm-6.2899-11.661c-0.74885-5.6739-0.77019-10.808-0.0417-10.014 1.3579 1.4807 2.3546 10.787 1.1553 10.787-0.55637 0-1.0575-0.34807-1.1137-0.77348zm6.2899-22.431c0-1.418 0.39973-2.5783 0.88829-2.5783s0.6665 1.1602 0.39542 2.5783c-0.27108 1.418-0.6708 2.5782-0.88829 2.5782-0.21748 0-0.39542-1.1602-0.39542-2.5782zm-4.0438-3.1798c0.0495-1.2014 0.29385-1.4458 0.62307-0.62308 0.29791 0.74446 0.26128 1.634-0.0814 1.9767-0.34269 0.3427-0.58644-0.26642-0.54166-1.3536zm0.94988-6.6175c0-0.56722 0.46408-1.0313 1.0313-1.0313s1.0313 0.46409 1.0313 1.0313-0.46408 1.0313-1.0313 1.0313-1.0313-0.46409-1.0313-1.0313z"/>
 </g>
</svg>
