<?xml version="1.0" encoding="UTF-8" standalone="no"?>
<!-- Created with Inkscape (http://www.inkscape.org/) -->
<svg id="svg3336" xmlns:rdf="http://www.w3.org/1999/02/22-rdf-syntax-ns#" xmlns="http://www.w3.org/2000/svg" height="679.79" viewBox="0 0 503.9996 679.79047" width="504" version="1.1" xmlns:cc="http://creativecommons.org/ns#" xmlns:dc="http://purl.org/dc/elements/1.1/">
 <metadata id="metadata3342">
  <rdf:RDF>
   <cc:Work rdf:about="">
    <dc:format>image/svg+xml</dc:format>
    <dc:type rdf:resource="http://purl.org/dc/dcmitype/StillImage"/>
    <dc:title/>
   </cc:Work>
  </rdf:RDF>
 </metadata>
 <path id="path3346" fill="#fff" d="m221.86 649.54c-16.147-16.643-47.785-49.38-70.306-72.75-22.52-23.37-46.62-48.34-53.56-55.49s-25.83-26.72-41.98-43.5-35.36-36.61-42.68-44.08l-13.33-13.57v-383.06l4.75-0.601c2.6125-0.32906 20.5-2.903 39.75-5.7198s39.5-5.7503 45-6.5189c5.5-0.76853 25.525-3.6608 44.5-6.4272s50.25-7.316 69.5-10.11c36.487-5.2962 43.105-6.3313 47.856-7.4847 1.571-0.38138 3.146-0.27331 3.5 0.24015s4.6936 1.4602 9.6436 2.1039c4.95 0.64366 27.675 3.8901 50.5 7.2142 22.825 3.3242 57.025 8.2915 76 11.039 18.975 2.747 50.025 7.2606 69 10.03 18.975 2.7695 36.638 5.3047 39.25 5.6338l4.75 0.59832v383.06l-13.323 13.576c-7.33 7.46-26.76 27.52-43.19 44.57-16.423 17.05-35.313 36.625-41.978 43.5-6.6648 6.875-30.77 31.848-53.567 55.497-71.25 73.91-99.12 102.5-99.94 102.5-0.43274 0-13.998-13.617-30.146-30.26z"/>
 <path id="path4158" d="m227.68 539.74c-32.414-3.7198-56.49-10.729-83.507-24.311-34.816-17.503-67.45-43.406-94.611-75.096-4.8698-5.682-4.306-5.255 5.0927 3.8571 26.031 25.237 48.265 41.466 75.518 55.123 16.36 8.1979 34.139 14.69 49.386 18.032 7.5637 1.6581 11.341 1.9432 25.748 1.943 16.307-0.00017 17.115-0.0818 23.638-2.3849 11.734-4.1434 19.636-10.712 21.688-18.027 1.1772-4.1981 2.3724-5.7948 2.3724-3.1695 0 1.0488 0.91431 3.7193 2.0318 5.9344 3.486 6.9101 9.5803 11.486 20.34 15.271 6.5145 2.2919 7.3517 2.3761 23.638 2.3762 19.762 0.00018 26.516-1.1634 47.276-8.1446 35.199-11.837 69.826-34.208 102.97-66.524 8.5495-8.3362 9.9436-9.4599 6.3602-5.1262-6.9415 8.3949-28.084 29.543-37.32 37.33-34.197 28.831-71.693 48.58-109.69 57.772-16.917 4.0927-25.754 4.9782-52.227 5.2341-14.162 0.13688-27.078 0.0962-28.703-0.0903zm-7.5979-42.591c-48.593-10.796-92.341-32.692-121.99-61.057-10.899-10.428-19.356-15.003-29.501-15.961-4.6423-0.43846-11.084 0.36327-14.938 1.8592-1.1235 0.43607-0.85657-1.0257 1.4325-7.8439 4.7267-14.079 5.849-21.195 5.833-36.984-0.0188-18.457-2.7746-32.905-8.9291-46.812-1.3143-2.9697-2.1158-5.272-1.7812-5.1162 0.33461 0.15581 3.348 1.7184 6.6965 3.4725 10.016 5.2468 19.356 7.6254 30.213 7.6943 11.135 0.0707 17.358-1.4175 27.015-6.4601 8.2009-4.2826 20.737-16.42 26.926-26.069 8.4133-13.117 4.8744-4.5383 94.895-230.03 16.125-40.393 19.584-48.359 19.584-45.113 0 1.5397 97.148 247 100.16 253.06 14.559 29.336 35.346 45.382 62.897 48.551 6.8361 0.78625 9.8929 0.7091 17.867-0.45095 5.2908-0.7697 11.828-2.1679 14.527-3.1071 2.6989-0.93917 5.0798-1.533 5.2908-1.3196 0.21095 0.21337-0.96394 3.7686-2.6109 7.9005-10.478 26.287-10.902 58.726-1.0936 83.763l2.1073 5.3794-1.8533-0.60148c-8.0314-2.6065-15.209-2.6359-22.585-0.0925-7.9069 2.7264-13.984 6.7255-23.382 15.388-20.406 18.808-43.495 33.185-71.965 44.81-17.853 7.29-45.71 15.315-58.251 16.781l-3.7989 0.44411 4.221-1.3027c2.3216-0.71648 7.4502-2.2664 11.397-3.4444 25.765-7.6898 46.533-19.001 60.013-32.687 12.052-12.236 17.554-24.023 18.294-39.192 0.68442-14.029-1.2641-23.036-8.9063-41.174-1.8799-4.4615-27.803-67.477-57.608-140.03-29.804-72.557-54.28-132.02-54.391-132.15-0.11074-0.12473-10.748 29.078-23.637 64.894-12.89 35.816-35.775 99.318-50.856 141.11-15.081 41.797-28.183 78.876-29.116 82.398-1.2176 4.5982-1.718 9.2933-1.7745 16.65-0.095 12.343 1.2162 18.157 6.5473 29.031 11.654 23.773 39.247 41.979 83.185 54.886 5.7176 1.6796-0.8899 0.97923-10.131-1.0738z"/>
</svg>
