<?xml version="1.0" encoding="UTF-8" standalone="no"?>
<!-- Created with Inkscape (http://www.inkscape.org/) -->
<svg id="svg3336" xmlns:rdf="http://www.w3.org/1999/02/22-rdf-syntax-ns#" xmlns="http://www.w3.org/2000/svg" height="679.79" viewBox="0 0 503.9996 679.79047" width="504" version="1.1" xmlns:cc="http://creativecommons.org/ns#" xmlns:dc="http://purl.org/dc/elements/1.1/">
 <metadata id="metadata3342">
  <rdf:RDF>
   <cc:Work rdf:about="">
    <dc:format>image/svg+xml</dc:format>
    <dc:type rdf:resource="http://purl.org/dc/dcmitype/StillImage"/>
    <dc:title/>
   </cc:Work>
  </rdf:RDF>
 </metadata>
 <path id="path3346" fill="#fff" d="m221.86 649.54c-16.147-16.643-47.785-49.38-70.306-72.75-22.52-23.37-46.62-48.34-53.56-55.49s-25.83-26.72-41.98-43.5-35.36-36.61-42.68-44.08l-13.33-13.57v-383.06l4.75-0.601c2.6125-0.32906 20.5-2.903 39.75-5.7198s39.5-5.7503 45-6.5189c5.5-0.76853 25.525-3.6608 44.5-6.4272s50.25-7.316 69.5-10.11c36.487-5.2962 43.105-6.3313 47.856-7.4847 1.571-0.38138 3.146-0.27331 3.5 0.24015s4.6936 1.4602 9.6436 2.1039c4.95 0.64366 27.675 3.8901 50.5 7.2142 22.825 3.3242 57.025 8.2915 76 11.039 18.975 2.747 50.025 7.2606 69 10.03 18.975 2.7695 36.638 5.3047 39.25 5.6338l4.75 0.59832v383.06l-13.323 13.576c-7.33 7.46-26.76 27.52-43.19 44.57-16.423 17.05-35.313 36.625-41.978 43.5-6.6648 6.875-30.77 31.848-53.567 55.497-71.25 73.91-99.12 102.5-99.94 102.5-0.43274 0-13.998-13.617-30.146-30.26z"/>
 <g id="layer3" transform="translate(-123 -34.203)">
  <path id="path5828" d="m345.5 573.59c-14.445-1.7155-29.196-4.6058-41.253-8.0828-9.9786-2.8776-34.899-12.522-35.698-13.816-0.27279-0.44138 0.23454-2.6283 1.1274-4.8598 1.6194-4.0474 1.6312-4.054 4.8567-2.7107 5.0916 2.1204 22.059 6.5466 31.392 8.1891 12.485 2.1972 32.32 1.9699 41.899-0.48002 4.2585-1.0891 9.1719-2.7193 10.919-3.6226 4.1792-2.1611 11.073-8.4215 13.313-12.09l1.7851-2.9234 1.5513 3c3.795 7.3386 13.274 13.24 26.129 16.265 9.1676 2.1579 35.716 1.2929 48.029-1.5649 23.95-5.5586 52.483-18.2 76.12-33.725 11.342-7.4492 15.393-9.102 15.393-6.2803 0 1.347-18.047 14.996-31.132 23.544-24.606 16.076-59.409 30.604-85.231 35.579-26.746 5.1533-55.131 6.4353-79.199 3.5769zm-100.02-38.47c-29.663-17.311-57.211-39.926-79.595-65.343-5.547-6.2986-4.8579-5.8019 5.9488 4.2882 27.228 25.423 56.253 45.443 81.664 56.327 4.3826 1.8773 8.1287 3.5273 8.3246 3.6668 0.55721 0.39665-1.9379 7.433-2.8316 7.9854-0.43947 0.27161-6.5195-2.8445-13.511-6.9248zm176.48-4.6055c37.018-12.405 62.958-31.429 71.84-52.688l1.4506-3.4718h8.9306 8.9306l5.8248 5.8862c3.2036 3.2374 5.8248 6.2 5.8248 6.5834 0 1.3743-21.921 15.14-33.509 21.044-20.533 10.459-41.001 18.058-63.222 23.47-19.683 4.794-21.926 4.4898-6.0705-0.82336zm-77.483-9.2288c-13.474-3.1305-29.718-8.0567-42.194-12.796-6.6805-2.5377-12.294-4.7615-12.474-4.942-0.57465-0.57465 2.8812-9.8405 3.6702-9.8405 0.41635 0 3.238 1.7725 6.2702 3.939 11.928 8.5222 31.55 17.557 49.82 22.94 9.9803 2.9404 6.5688 3.4089-5.0928 0.69944zm205.93-10.613c0.18112-0.75281 4.5616-4.882 9.7344-9.1759 5.1728-4.294 14.102-12.272 19.844-17.729 8.5018-8.0811 9.4661-8.7881 5.1972-3.8107-8.8563 10.326-31.462 32.084-33.335 32.084-0.97329 0-1.6214-0.61593-1.4403-1.3687zm-284.12-9.3249c-17.72-9.4408-31.494-19.257-46.9-33.424-11.67-10.731-19.317-14.377-30.241-14.419-4.4816-0.0169-9.6373 0.34922-11.457 0.81369l-3.3086 0.84447 1.9107-4.4575c2.2738-5.3045 6.2344-20.545 6.2344-23.99 0-1.7612 4.657-7.2909 16.832-19.986 15.346-16.002 17.535-17.894 24.802-21.437l7.9703-3.886 21.229 9.323c11.676 5.1277 21.389 9.483 21.585 9.6786 0.19553 0.19553-1.5096 5.0372-3.7893 10.759-6.7135 16.851-8.5094 24.561-8.5503 36.704-0.0542 16.099 4.0748 27.579 14.565 40.493 2.8464 3.5041 5.1752 6.7439 5.1752 7.1996 0 2.6997-3.3359 11.381-4.3683 11.368-0.67855-0.008-5.9382-2.5219-11.688-5.5854zm245.97-38.452-14.983-14.514-1.1017-8.6037c-1.4834-11.584-2.4151-14.232-28.792-81.82-12.631-32.367-23.238-59.705-23.57-60.751-0.50434-1.589 1.5009-3.0096 12.182-8.6302 7.0323-3.7005 13.123-6.7281 13.534-6.7281 0.41148 0 3.4501 6.9898 6.7526 15.533 11.879 30.73 19.676 44.294 32.403 56.367 12.501 11.859 25.375 17.212 41.032 17.062 9.8792-0.0949 18.895-2.28 28.895-7.003 8.3932-3.9642 8.0944-4.508 3.7882 6.8941-4.332 11.47-6.7098 25.578-6.7098 39.81 0 14.014 1.5101 23.741 5.5586 35.801 1.4654 4.3654 2.4928 8.1087 2.283 8.3185-0.20976 0.20977-1.8682-0.1369-3.6853-0.77037-1.8626-0.64932-6.4914-0.9472-10.611-0.68284-10.88 0.69823-18.132 4.3716-30.046 15.219-5.4143 4.9297-10.318 8.9747-10.897 8.989-0.57883 0.0143-7.7946-6.5055-16.035-14.488zm-14.461 3.0557c0.39334-2.3809 0.82625-4.4541 0.962-4.6072 0.13576-0.15308 2.4897 1.79 5.231 4.318l4.9842 4.5963-5.9462 0.0109-5.9462 0.0109 0.71517-4.3289zm-314.25-54.13c0-5.2293-0.47938-4.7846 12.643-11.727l8.0592-4.2635-9.5058 9.9779c-5.2282 5.4879-9.8861 10.131-10.351 10.317-0.46484 0.18674-0.84516-1.7507-0.84516-4.3054zm5.2842-14.45c0.28912-0.51536 3.1628-5.6351 6.3859-11.377l5.8602-10.44 8.2956-0.0121c15.442-0.0225 28.105-5.2404 39.894-16.439 13.857-13.163 20.507-24.872 34.617-60.959 4.9286-12.605 9.1352-23.124 9.3481-23.376 0.21287-0.25222 5.5782 4.7179 11.923 11.045l11.536 11.503-8.2719 21.308-8.2719 21.308-54.301 28.567c-56.334 29.636-57.883 30.421-57.015 28.873zm75.487-9.9626c-10.196-4.5594-18.764-8.5312-19.04-8.8262-0.27643-0.295 7.1395-4.5347 16.48-9.4216l16.982-8.8853h9.5512c7.2293 0 9.4293 0.30952 9.0499 1.2732-0.27572 0.70025-3.3773 8.7214-6.8924 17.825-3.5151 9.1033-6.6616 16.501-6.9922 16.438-0.33059-0.0623-8.943-3.8437-19.139-8.4031zm-80.779-0.39601c-1.568-7.8447-4.7641-18.689-7.1449-24.244-1.0681-2.4918-1.7534-4.5305-1.5228-4.5305 0.23055 0 2.5531 1.1346 5.1612 2.5213s7.9034 3.5395 11.767 4.784c3.8639 1.2445 7.0253 2.566 7.0253 2.9368 0 0.86628-13.259 24.389-13.748 24.389-0.20216 0-0.89435-2.6355-1.5382-5.8567zm103.9-33.35c0-0.47936 13.743-7.652 14.662-7.652 0.24903 0-0.26741 1.8334-1.1476 4.0742l-1.6004 4.0742h-5.9568c-3.2762 0-5.9568-0.22341-5.9568-0.49648zm143.72-64.916c-1.0331-2.3971-1.717-4.6429-1.5197-4.9907 0.19729-0.34784 3.0038-0.0407 6.2365 0.6825 3.2328 0.72321 6.7945 1.4923 7.9149 1.7091 1.5089 0.29193 0.37899 1.245-4.3581 3.6758l-6.3952 3.2817-1.8784-4.3583zm-123.78-13.96-11.095-11.13 3.6576-9.496c3.7487-9.7326 27.327-69.591 56.811-144.22 9.1342-23.122 16.926-41.685 17.316-41.251 0.38946 0.43374 6.9747 16.769 14.634 36.302l13.926 35.513-2.1276 6.3935c-2.0974 6.3026-2.2498 6.4685-10.723 11.665-4.7276 2.8992-9.0101 5.0151-9.5166 4.702-0.50655-0.31307-1.199-1.6769-1.5388-3.0307-0.33979-1.3538-1.569-4.6806-2.7316-7.3928-1.7024-3.9714-2.2952-4.6071-3.0459-3.2657-0.76021 1.3584-48.588 124-52.081 133.54-0.56363 1.5406-1.3315 2.801-1.7064 2.801-0.37491 0-5.6745-5.0084-11.777-11.13zm129.07 5.6737c-5.7193-1.2007-10.816-2.6415-11.326-3.2017-0.50974-0.5602-7.6903-18.436-15.957-39.724l-15.03-38.705 3.9473-11.688 3.9473-11.688 4.0742-1.142c10.143-2.8431 9.058-3.3149 12.495 5.4354 1.7022 4.3332 11.2 28.426 21.107 53.54 9.9066 25.114 17.858 45.764 17.669 45.889-6.5563 4.3375-6.4233 4.3294-20.927 1.2843zm-48.91-103.3c-1.2282-3.203-2.5074-6.5678-2.8426-7.4773-0.44956-1.2197 1.1369-2.7565 6.0457-5.8567 3.6603-2.3117 6.8623-4.2031 7.1155-4.2031 0.56891 0-6.5331 21.617-7.4346 22.63-0.35799 0.40203-1.6558-1.8897-2.884-5.0928zm11.945-7.1338c0-0.46176 1.0934-4.0227 2.4298-7.9132 2.2554-6.5658 2.5027-6.8908 3.4439-4.5272 0.55772 1.4005 1.7399 4.2826 2.6272 6.4048 1.5694 3.7537 1.552 3.8809-0.64286 4.689-4.2611 1.5689-7.858 2.1853-7.858 1.3467z"/>
 </g>
</svg>
