<?xml version="1.0" encoding="UTF-8" standalone="no"?>
<!-- Created with Inkscape (http://www.inkscape.org/) -->
<svg id="svg3336" xmlns:rdf="http://www.w3.org/1999/02/22-rdf-syntax-ns#" xmlns="http://www.w3.org/2000/svg" height="679.79" viewBox="0 0 503.9996 679.79047" width="504" version="1.1" xmlns:cc="http://creativecommons.org/ns#" xmlns:dc="http://purl.org/dc/elements/1.1/">
 <metadata id="metadata3342">
  <rdf:RDF>
   <cc:Work rdf:about="">
    <dc:format>image/svg+xml</dc:format>
    <dc:type rdf:resource="http://purl.org/dc/dcmitype/StillImage"/>
    <dc:title/>
   </cc:Work>
  </rdf:RDF>
 </metadata>
 <path id="path3346" fill="#fff" d="m221.86 649.54c-16.147-16.643-47.785-49.38-70.306-72.75-22.52-23.37-46.62-48.34-53.56-55.49s-25.83-26.72-41.98-43.5-35.36-36.61-42.68-44.08l-13.33-13.57v-383.06l4.75-0.601c2.6125-0.32906 20.5-2.903 39.75-5.7198s39.5-5.7503 45-6.5189c5.5-0.76853 25.525-3.6608 44.5-6.4272s50.25-7.316 69.5-10.11c36.487-5.2962 43.105-6.3313 47.856-7.4847 1.571-0.38138 3.146-0.27331 3.5 0.24015s4.6936 1.4602 9.6436 2.1039c4.95 0.64366 27.675 3.8901 50.5 7.2142 22.825 3.3242 57.025 8.2915 76 11.039 18.975 2.747 50.025 7.2606 69 10.03 18.975 2.7695 36.638 5.3047 39.25 5.6338l4.75 0.59832v383.06l-13.323 13.576c-7.33 7.46-26.76 27.52-43.19 44.57-16.423 17.05-35.313 36.625-41.978 43.5-6.6648 6.875-30.77 31.848-53.567 55.497-71.25 73.91-99.12 102.5-99.94 102.5-0.43274 0-13.998-13.617-30.146-30.26z"/>
 <g id="layer4" transform="translate(-123 -34.203)">
  <path id="path6397" d="m345.42 573.31c-47.111-4.8967-89.683-23.296-131.24-56.723-6.5294-5.2515-11.872-9.7646-11.872-10.029 0-0.66431 1.6946 0.40676 7.5776 4.7894 13.911 10.363 43.03 25.844 61.631 32.767 31.384 11.679 63.549 15.072 81.864 8.6349 5.0008-1.7577 14.579-7.696 14.659-9.0883 0.0185-0.32257 0.93355-1.667 2.0335-2.9875l1.9999-2.401 4.1566 4.7221c4.6248 5.2541 11.042 8.9057 19.797 11.266 8.0115 2.1594 27.424 2.1295 40.178-0.0619 28.228-4.8501 62.916-19.417 91.909-38.598 14.458-9.565 13.405-7.8033-2.9979 5.0145-53.635 41.912-113.77 59.547-179.69 52.696zm-25.411-51.549c-22.938-6.2388-43.213-14.09-57.411-22.231-11.206-6.4261-23.047-14.651-22.68-15.754 0.16553-0.49656 6.1723-3.9986 13.348-7.7824l13.047-6.8796 3.3604 7.0119c8.6314 18.011 25.405 32.198 51.345 43.428 12.437 5.3841 12.241 5.8112-1.0104 2.207zm94.468 1.4653c28.419-13.125 36.719-18.34 47.403-29.78 7.7351-8.2826 14.328-19.949 16.274-28.799 1.6845-7.66 0.81723-27.051-1.5083-33.722-0.96846-2.7785-6.5056-17.292-12.305-32.251-5.7992-14.96-10.346-27.715-10.105-28.344 0.64621-1.684 30.295-19.21 30.661-18.125 2.9453 8.7224 20.03 20.753 33.443 23.55 12.862 2.6822 28.912 0.20648 41.297-6.3698 4.807-2.5526 6.3557-3.0279 5.8162-1.7851-7.1322 16.429-9.8483 29.545-9.8713 47.665-0.0194 15.313 1.6173 25.025 6.2906 37.324l2.02 5.3163-2.2152-0.65505c-5.843-1.7278-13.675-1.7606-19.451-0.0815-8.374 2.4344-13.362 5.6153-23.611 15.058-27.691 25.511-60.182 41.566-104.64 51.706-1.313 0.29946-1.1361 0.0523 0.50518-0.70572zm-170.87-58.2c-2.4373-2.0391-7.5675-6.6239-11.401-10.188-11.806-10.979-25.856-15.637-37.482-12.427-2.1626 0.59713-4.0604 0.95725-4.2174 0.80026-0.15699-0.15698 0.63892-2.7181 1.7687-5.6914 4.605-12.12 6.3039-22.096 6.2845-36.908-0.0232-17.786-2.6684-30.412-9.9386-47.439-0.75052-1.7578-0.34033-1.6793 3.7492 0.71737 6.6454 3.8945 18.688 7.6847 26.816 8.4402 21.41 1.9898 41.676-9.3177 56.423-31.481 7.2777-10.938 9.5743-16.104 28.273-63.603 8.7504-22.228 24.42-62.01 34.822-88.406 10.402-26.395 22.222-56.403 26.267-66.683 16.964-43.109 16.82-42.775 17.607-40.795 1.0715 2.694 52.137 138.91 69.269 184.77 15.592 41.741 20.442 52.886 27.666 63.575 3.549 5.2516 4.4057 7.2069 3.4365 7.8436-0.71005 0.46649-29.025 17.525-62.922 37.909-33.897 20.383-85.604 51.5-114.9 69.147-29.299 17.648-54.13 32.546-55.179 33.107-1.5433 0.82594-2.7536 0.31298-6.3389-2.6866zm95.088-57.86c27.507-15.171 63.69-35.128 80.407-44.349 16.717-9.2211 31.331-17.448 32.474-18.281 2.0713-1.5095 2.062-1.5638-2.3439-13.64-2.4329-6.6683-4.8887-13.178-5.4572-14.466l-1.0338-2.3419-5.2947 2.9767c-2.9121 1.6372-17.343 9.2272-32.069 16.867-14.726 7.6395-31.548 16.401-37.383 19.47-19.775 10.401-8.7293 3.6373 32.533-19.921l41.121-23.477-2.0602-5.2141c-2.7342-6.9197-37.844-103.08-48.384-132.52-4.5763-12.781-8.6352-23.59-9.0198-24.019-0.3846-0.42977-7.3467 16.393-15.471 37.383-20.481 52.914-39.86 102.87-60.863 156.88-26.963 69.343-28.807 74.354-30.371 82.532-0.79634 4.1621-1.4479 9.8402-1.4479 12.618v5.0506l7.325-3.9833c4.0288-2.1908 29.831-16.396 57.337-31.566z"/>
 </g>
</svg>
